<svg width="144" height="65" viewBox="0 0 144 65" fill="none" xmlns="http://www.w3.org/2000/svg">
<path d="M7.11306 47.4925C5.89955 47.7474 4.67616 46.9826 4.42944 45.8083C4.14981 44.4773 4.87547 43.2621 6.16727 42.9907C7.41993 42.7276 8.52587 43.5171 8.79727 44.8089C9.05222 46.0224 8.36571 47.2293 7.11306 47.4925ZM29.7364 51.7316C24.3735 52.8583 20.7014 50.3599 19.6569 45.3884C18.0038 37.5202 23.1985 24.6982 32.2411 22.7984C35.8817 22.0336 37.6692 23.5382 38.1051 25.6129C38.7548 28.7054 36.3653 33.0904 31.7462 34.0608C31.3156 34.1513 30.885 34.2417 30.4379 34.2539C33.4524 32.844 35.1682 28.5597 34.6665 26.1718C34.4363 25.0758 33.7073 24.3297 32.3764 24.6093C27.9529 25.5386 22.2605 36.3807 23.8231 43.8183C24.6455 47.7328 27.185 49.1204 30.6298 48.3966C34.5835 47.566 38.7628 44.1129 39.9829 38.0526L41.3796 38.0861C39.8043 46.3465 35.021 50.6213 29.7364 51.7316ZM54.5064 36.5545L55.8844 37.0824C55.2466 40.0776 53.2492 42.827 49.8435 43.5425L49.3738 43.6412C48.11 45.9912 46.2139 47.861 43.9043 48.3462C41.1641 48.9219 38.8657 47.3203 38.2571 44.4235C37.2949 39.8435 40.6025 32.241 45.7305 31.1637C48.823 30.514 50.4599 32.6633 50.9534 35.012C51.3481 36.891 51.1041 39.2312 50.31 41.4826C52.7742 40.7605 53.9863 38.7483 54.5064 36.5545ZM46.0986 32.7213C45.9029 32.7624 45.6763 32.8509 45.4888 32.9311C45.0825 33.9157 44.4657 35.8437 44.951 38.1533C45.2717 39.6799 45.9573 40.803 47.053 41.3494C47.8306 39.0197 48.1964 36.2861 47.777 34.2897C47.5138 33.037 47.0381 32.5239 46.0986 32.7213ZM43.7385 45.8061C44.678 45.6087 45.5704 44.6037 46.2941 43.1846C44.978 42.5619 44.0391 41.206 43.6032 39.1313C43.2332 37.3697 43.4151 35.9009 43.741 34.7289C42.1433 37.4352 41.5687 42.0929 42.021 44.2459C42.2842 45.4985 42.9165 45.9788 43.7385 45.8061ZM70.0579 34.3499L71.3803 34.8078C70.2951 38.5918 68.0888 43.2652 64.6049 43.9972C62.6476 44.4084 61.515 43.2975 61.1696 41.6534C60.4706 38.3261 63.0334 33.2098 62.5646 30.9785C62.5153 30.7437 62.3116 29.969 61.4504 30.1499C60.3935 30.372 59.1609 31.898 58.0718 35.2741L56.3495 45.3637L52.6307 46.145L54.7888 33.2662C54.8921 32.5905 54.8799 32.1434 54.8059 31.7911C54.6743 31.1648 54.3881 30.7753 53.7825 30.6164C55.027 30.3141 57.8642 29.2276 58.5175 28.6407L57.933 32.2786L58.1678 32.2293C59.3557 29.3229 61.2248 27.9084 62.7906 27.5795C64.513 27.2176 66.0906 28.1123 66.4443 29.7956C67.02 32.5358 64.4591 37.856 64.9279 40.0872C65.0677 40.7527 65.4157 41.0475 66.0421 40.9159C67.9602 40.5129 69.4204 36.5684 70.0579 34.3499ZM87.3632 31.4499C86.4142 34.7148 84.0534 39.6251 80.3402 41.7949C80.1106 44.0094 79.9945 45.7913 80.2165 46.8483C80.3152 47.318 80.4593 47.6147 80.6652 47.8167L75.5079 49.9221L77.5529 36.6991C76.6884 39.7827 75.3424 41.7413 73.1502 42.2019C70.8406 42.6871 69.5969 41.4361 69.1692 39.4005C68.1741 34.6639 71.5708 25.7348 76.0333 24.7972C77.9123 24.4025 78.8739 25.6719 79.2357 27.3943L79.318 27.7857L79.388 27.7302C79.3719 26.8752 79.3663 25.4867 79.21 24.7429C79.7189 24.636 82.5127 23.9264 83.065 23.4425L81.0039 35.8106C80.8819 36.9806 80.7434 38.0724 80.6049 39.1642C83.2448 37.1382 85.525 32.817 86.0408 30.992L87.3632 31.4499ZM74.2742 39.1863C76.1532 38.7916 77.3068 33.9714 78.1446 30.5664C78.1821 29.5776 78.1805 28.597 78.0242 27.8532C77.8515 27.0311 77.5015 26.5325 76.8752 26.664C74.6439 27.1328 72.4136 34.9994 73.0469 38.0136C73.2278 38.8748 73.6088 39.3262 74.2742 39.1863ZM88.6598 38.9434C86.6633 39.3629 85.6317 38.149 85.3521 36.8181C85.1465 35.8394 85.3304 34.5746 85.5679 33.1759L86.6336 26.5758C86.7307 26.0649 86.7412 25.5313 86.6507 25.1007C86.5356 24.5527 86.2329 24.0849 85.6665 23.9178C86.88 23.6629 90.5063 22.247 91.0587 21.7631L89.0492 33.7933C88.9522 34.3042 88.9334 34.7986 89.0156 35.1901C89.1226 35.6989 89.4315 36.0019 90.0578 35.8703C91.8585 35.492 93.0259 32.0995 93.6861 29.7945L95.0245 21.3795L98.8877 20.1183L96.8783 32.1485C96.7812 32.6593 96.7625 33.1538 96.8447 33.5452C96.9516 34.0541 97.2605 34.3571 97.8869 34.2255C99.805 33.8225 101.265 29.878 101.903 27.6595L103.225 28.1174C102.14 31.9014 99.9336 36.5748 96.4888 37.2986C94.4924 37.718 93.4608 36.5042 93.1812 35.1732L93.1154 34.8601C92.0289 36.8868 90.617 38.5322 88.6598 38.9434ZM107.493 35.1501C104.009 35.8821 101.678 34.1239 101.045 31.1097C100.091 26.5688 103.023 19.1268 108.23 18.033C110.304 17.5971 111.653 18.3764 112.064 20.3337C112.805 23.8568 109.835 27.4237 106.468 28.1309C105.881 28.2543 105.277 28.2994 104.649 28.227C104.655 28.8389 104.7 29.4425 104.815 29.9905C105.218 31.9086 106.167 32.731 108.125 32.3198C113.527 31.1849 116.247 22.9291 115.047 17.2139C114.742 15.7655 114.304 15.0402 113.768 14.8257C114.904 14.5872 118.295 13.2207 118.847 12.7368C118.597 14.4651 118.36 15.8638 118.236 16.83C118.706 16.7313 119.262 16.6553 119.81 16.5401C121.885 16.1042 124.201 15.4542 125.301 14.8552C124.264 17.1167 121.692 24.5238 122.35 27.6554C122.514 28.4384 122.872 28.9762 123.655 28.8117C125.534 28.4169 127.221 24.384 127.828 22.2129L129.158 22.7099C127.947 26.4794 126.093 31.0788 122.57 31.819C120.535 32.2467 119.003 31.1789 118.55 29.0259C117.81 25.5028 120.058 19.4718 120.732 17.8178C120.083 18.0359 119.426 18.2148 118.839 18.3382C118.408 18.4287 117.97 18.48 117.609 18.5149C116.831 25.7084 113.874 33.8096 107.493 35.1501ZM104.755 26.9786C108.379 26.1355 109.482 22.6338 109.112 20.8722C108.964 20.1676 108.591 19.7554 108.043 19.8706C106.673 20.1584 105.139 23.7506 104.755 26.9786ZM138.197 19.9527C136.983 20.2076 135.76 19.4428 135.513 18.2684C135.233 16.9375 135.959 15.7223 137.251 15.4509C138.504 15.1878 139.609 15.9772 139.881 17.269C140.136 18.4825 139.449 19.6895 138.197 19.9527Z" fill="#FFDD00"/>
</svg>
