<svg width="376" height="123" viewBox="0 0 376 123" fill="none" xmlns="http://www.w3.org/2000/svg">
<path d="M107.44 77.7854C106.226 78.0403 105.003 77.2755 104.756 76.1011C104.476 74.7702 105.202 73.555 106.494 73.2836C107.746 73.0205 108.852 73.8099 109.124 75.1017C109.379 76.3153 108.692 77.5222 107.44 77.7854ZM145.736 78.7316C140.373 79.8583 136.701 77.3599 135.657 72.3884C134.004 64.5202 139.199 51.6982 148.241 49.7984C151.882 49.0336 153.669 50.5382 154.105 52.6129C154.755 55.7054 152.365 60.0904 147.746 61.0608C147.316 61.1513 146.885 61.2417 146.438 61.2539C149.452 59.844 151.168 55.5597 150.667 53.1718C150.436 52.0758 149.707 51.3297 148.376 51.6093C143.953 52.5386 138.26 63.3807 139.823 70.8183C140.645 74.7328 143.185 76.1204 146.63 75.3966C150.584 74.566 154.763 71.1129 155.983 65.0526L157.38 65.0861C155.804 73.3465 151.021 77.6213 145.736 78.7316ZM170.506 63.5545L171.884 64.0824C171.247 67.0776 169.249 69.827 165.844 70.5425L165.374 70.6412C164.11 72.9912 162.214 74.861 159.904 75.3462C157.164 75.9219 154.866 74.3203 154.257 71.4235C153.295 66.8435 156.602 59.241 161.731 58.1637C164.823 57.514 166.46 59.6633 166.953 62.012C167.348 63.891 167.104 66.2312 166.31 68.4826C168.774 67.7605 169.986 65.7483 170.506 63.5545ZM162.099 59.7213C161.903 59.7624 161.676 59.8509 161.489 59.9311C161.083 60.9157 160.466 62.8437 160.951 65.1533C161.272 66.6799 161.957 67.803 163.053 68.3494C163.831 66.0197 164.196 63.2861 163.777 61.2897C163.514 60.037 163.038 59.5239 162.099 59.7213ZM159.739 72.8061C160.678 72.6087 161.57 71.6037 162.294 70.1846C160.978 69.5619 160.039 68.206 159.603 66.1313C159.233 64.3697 159.415 62.9009 159.741 61.7289C158.143 64.4352 157.569 69.0929 158.021 71.2459C158.284 72.4985 158.916 72.9788 159.739 72.8061ZM186.058 61.3499L187.38 61.8078C186.295 65.5918 184.089 70.2652 180.605 70.9972C178.648 71.4084 177.515 70.2975 177.17 68.6534C176.471 65.3261 179.033 60.2098 178.565 57.9785C178.515 57.7437 178.312 56.969 177.45 57.1499C176.394 57.372 175.161 58.898 174.072 62.2741L172.349 72.3637L168.631 73.145L170.789 60.2662C170.892 59.5905 170.88 59.1434 170.806 58.7911C170.674 58.1648 170.388 57.7753 169.783 57.6164C171.027 57.3141 173.864 56.2276 174.517 55.6407L173.933 59.2786L174.168 59.2293C175.356 56.3229 177.225 54.9084 178.791 54.5795C180.513 54.2176 182.091 55.1123 182.444 56.7956C183.02 59.5358 180.459 64.856 180.928 67.0872C181.068 67.7527 181.416 68.0475 182.042 67.9159C183.96 67.5129 185.42 63.5684 186.058 61.3499ZM203.363 58.4499C202.414 61.7148 200.053 66.6251 196.34 68.7949C196.111 71.0094 195.994 72.7913 196.217 73.8483C196.315 74.318 196.459 74.6147 196.665 74.8167L191.508 76.9221L193.553 63.6991C192.688 66.7827 191.342 68.7413 189.15 69.2019C186.841 69.6871 185.597 68.4361 185.169 66.4005C184.174 61.6639 187.571 52.7348 192.033 51.7972C193.912 51.4025 194.874 52.6719 195.236 54.3943L195.318 54.7857L195.388 54.7302C195.372 53.8752 195.366 52.4867 195.21 51.7429C195.719 51.636 198.513 50.9264 199.065 50.4425L197.004 62.8106C196.882 63.9806 196.743 65.0724 196.605 66.1642C199.245 64.1382 201.525 59.817 202.041 57.992L203.363 58.4499ZM190.274 66.1863C192.153 65.7916 193.307 60.9714 194.145 57.5664C194.182 56.5776 194.18 55.597 194.024 54.8532C193.851 54.0311 193.501 53.5325 192.875 53.664C190.644 54.1328 188.414 61.9994 189.047 65.0136C189.228 65.8748 189.609 66.3262 190.274 66.1863ZM204.66 65.9434C202.663 66.3629 201.632 65.149 201.352 63.8181C201.147 62.8394 201.33 61.5746 201.568 60.1759L202.634 53.5758C202.731 53.0649 202.741 52.5313 202.651 52.1007C202.536 51.5527 202.233 51.0849 201.666 50.9178C202.88 50.6629 206.506 49.247 207.059 48.7631L205.049 60.7933C204.952 61.3042 204.933 61.7986 205.016 62.1901C205.123 62.6989 205.431 63.0019 206.058 62.8703C207.858 62.492 209.026 59.0995 209.686 56.7945L211.025 48.3795L214.888 47.1183L212.878 59.1485C212.781 59.6593 212.762 60.1538 212.845 60.5452C212.952 61.0541 213.261 61.3571 213.887 61.2255C215.805 60.8225 217.265 56.878 217.903 54.6595L219.225 55.1174C218.14 58.9014 215.934 63.5748 212.489 64.2986C210.492 64.718 209.461 63.5042 209.181 62.1732L209.115 61.8601C208.029 63.8868 206.617 65.5322 204.66 65.9434ZM223.493 62.1501C220.009 62.8821 217.678 61.1239 217.045 58.1097C216.091 53.5688 219.023 46.1268 224.23 45.033C226.304 44.5971 227.653 45.3764 228.064 47.3337C228.805 50.8568 225.835 54.4237 222.468 55.1309C221.881 55.2543 221.277 55.2994 220.649 55.227C220.655 55.8389 220.7 56.4425 220.815 56.9905C221.218 58.9086 222.167 59.731 224.125 59.3198C229.527 58.1849 232.247 49.9291 231.047 44.2139C230.742 42.7655 230.304 42.0402 229.768 41.8257C230.904 41.5872 234.295 40.2207 234.847 39.7368C234.597 41.4651 234.36 42.8638 234.236 43.83C234.706 43.7313 235.262 43.6553 235.81 43.5401C237.885 43.1042 240.201 42.4542 241.301 41.8552C240.264 44.1167 237.692 51.5238 238.35 54.6554C238.514 55.4384 238.872 55.9762 239.655 55.8117C241.534 55.4169 243.221 51.384 243.828 49.2129L245.158 49.7099C243.947 53.4794 242.093 58.0788 238.57 58.819C236.535 59.2467 235.003 58.1789 234.55 56.0259C233.81 52.5028 236.058 46.4718 236.732 44.8178C236.083 45.0359 235.426 45.2148 234.839 45.3382C234.408 45.4287 233.97 45.48 233.609 45.5149C232.831 52.7084 229.874 60.8096 223.493 62.1501ZM220.755 53.9786C224.379 53.1355 225.482 49.6338 225.112 47.8722C224.964 47.1676 224.591 46.7554 224.043 46.8706C222.673 47.1584 221.139 50.7506 220.755 53.9786ZM269.87 43.6598C268.657 43.9147 267.433 43.1499 267.186 41.9755C266.907 40.6446 267.633 39.4294 268.924 39.158C270.177 38.8949 271.283 39.6843 271.554 40.9761C271.809 42.1896 271.123 43.3966 269.87 43.6598Z" fill="#FFDD00"/>
<g clip-path="url(#clip0_8513_2101)">
<path d="M271.274 32.6192L272.831 37.5452L278.065 36.7173C278.727 36.6126 279.116 37.4362 278.619 37.8799L274.189 41.8411L275.856 47.1106C276.043 47.6995 275.402 48.2049 274.87 47.8893L270.403 45.2279L266.101 49.0744C265.593 49.5285 264.808 49.0211 265.014 48.3699L266.704 43.025L262.312 40.4075C261.771 40.0849 261.929 39.2651 262.549 39.167L268.203 38.2728L269.994 32.6197C270.192 31.9956 271.076 31.9932 271.274 32.6192Z" fill="#FFDD00"/>
</g>
<g clip-path="url(#clip1_8513_2101)">
<path d="M108.274 66.6192L109.831 71.5452L115.065 70.7173C115.727 70.6126 116.116 71.4362 115.619 71.8799L111.189 75.8411L112.856 81.1106C113.043 81.6995 112.402 82.2049 111.87 81.8893L107.403 79.2279L103.101 83.0744C102.593 83.5285 101.808 83.0211 102.014 82.3699L103.704 77.025L99.3116 74.4075C98.7709 74.0849 98.9291 73.2651 99.5493 73.167L105.203 72.2728L106.994 66.6197C107.192 65.9956 108.076 65.9932 108.274 66.6192Z" fill="#FFDD00"/>
</g>
<defs>
<clipPath id="clip0_8513_2101">
<rect width="17.049" height="16.3743" fill="white" transform="translate(261 33.6641) rotate(-8.98738)"/>
</clipPath>
<clipPath id="clip1_8513_2101">
<rect width="17.049" height="16.3743" fill="white" transform="translate(98 67.6641) rotate(-8.98738)"/>
</clipPath>
</defs>
</svg>
