<svg width="271" height="95" viewBox="0 0 271 95" fill="none" xmlns="http://www.w3.org/2000/svg">
<path d="M65.4576 78.0274C61.1986 78.9222 57.6587 78.4669 54.8379 76.6617C52.0084 74.8146 50.1725 71.8869 49.3304 67.8784C48.6725 64.7468 48.6761 61.2363 49.3413 57.3471C50.0483 53.4492 51.2552 49.7514 52.9618 46.2537C54.6597 42.7144 56.9683 39.5916 59.8877 36.8856C62.807 34.1796 65.9995 32.4625 69.4652 31.7344C72.221 31.1554 74.369 31.3145 75.909 32.2117C77.4908 33.1001 78.4703 34.4421 78.8475 36.2375C79.4089 38.9099 78.72 41.6487 76.7807 44.454C74.8831 47.2506 72.1807 49.0173 68.6732 49.7542C67.7546 49.9472 67.0569 50.0502 66.58 50.0632C68.879 48.9698 70.6806 47.0653 71.9848 44.3498C73.322 41.5838 73.7757 39.1778 73.3458 37.1318C72.9072 35.044 71.6858 34.2107 69.6815 34.6318C67.3432 35.123 64.9395 37.0668 62.4704 40.463C60.043 43.8505 58.1493 47.9106 56.7893 52.6433C55.4711 57.3673 55.2068 61.6082 55.9963 65.3662C56.6367 68.4143 57.8916 70.5485 59.7611 71.7689C61.6724 72.9805 64.0477 73.288 66.8871 72.6915C70.311 71.9721 73.4233 70.1847 76.2241 67.3292C79.0665 64.4649 80.9425 60.7355 81.852 56.141L84.0867 56.1947C82.8843 62.5075 80.598 67.5002 77.2278 71.1729C73.8906 74.7951 69.9672 77.08 65.4576 78.0274ZM105.09 53.744L107.294 54.5888C106.742 57.1464 105.642 59.3829 103.995 61.2984C102.34 63.1721 100.218 64.381 97.629 64.9249L96.8774 65.0828C94.5925 69.3558 91.6755 71.8652 88.1263 72.6109C85.955 73.067 84.0313 72.73 82.3551 71.5999C80.6702 70.4279 79.5821 68.6728 79.0908 66.3345C78.5732 63.871 78.7348 61.1121 79.5755 58.058C80.4491 54.9534 81.9325 52.1567 84.0255 49.6678C86.1185 47.179 88.4594 45.6626 91.0482 45.1187C93.3447 44.6363 95.1893 45.0117 96.582 46.245C98.0164 47.4696 98.9573 49.1466 99.4047 51.2762C100.054 54.366 99.7108 57.817 98.3753 61.629C101.863 60.591 104.101 57.9627 105.09 53.744ZM91.6372 47.6109C91.3866 47.6635 91.0614 47.7755 90.6614 47.9467C89.5087 50.7612 89.2219 53.5463 89.8009 56.3021C90.336 58.8492 91.4571 60.5538 93.1642 61.4159C94.6119 57.1007 94.998 53.3355 94.3225 50.1204C93.9102 48.1579 93.0151 47.3214 91.6372 47.6109ZM87.861 68.5466C89.3224 68.2396 90.6854 66.8414 91.95 64.3523C89.7727 63.3274 88.3376 61.1656 87.6446 57.8669C87.1445 55.4869 87.218 53.1389 87.865 50.8231C86.638 52.8684 85.7678 55.4709 85.2545 58.6306C84.7742 61.7398 84.727 64.213 85.113 66.0503C85.5253 68.0127 86.4413 68.8449 87.861 68.5466ZM129.972 50.2167L132.088 50.9494C131.06 54.5659 129.623 57.789 127.776 60.6185C125.97 63.4393 123.794 65.1173 121.247 65.6524C119.744 65.9682 118.525 65.7666 117.589 65.0477C116.653 64.3287 116.04 63.2803 115.751 61.9024C115.347 59.9816 115.665 56.9284 116.704 52.7427C117.776 48.5065 118.202 45.8664 117.983 44.8225C117.755 43.7369 117.16 43.295 116.2 43.4967C114.238 43.9091 112.436 46.6419 110.794 51.6954L108.039 67.8389L102.088 69.0889L105.541 48.4827C105.691 47.5357 105.7 46.749 105.569 46.1227C105.358 45.1206 104.812 44.4941 103.931 44.2432C105.008 43.9733 106.414 43.5037 108.148 42.8342C109.915 42.1141 111.035 41.5301 111.507 41.082L110.572 46.9027L110.948 46.8237C112.705 42.5306 115.171 40.0507 118.344 39.384C119.722 39.0945 120.963 39.2917 122.065 39.9756C123.201 40.6089 123.909 41.5937 124.19 42.9298C124.515 44.4748 124.132 47.3236 123.043 51.4763C121.953 55.629 121.527 58.2691 121.764 59.3965C121.992 60.4821 122.586 60.924 123.547 60.7223C124.883 60.4415 126.114 59.2456 127.24 57.1343C128.357 54.9812 129.268 52.6754 129.972 50.2167ZM157.661 45.5767C156.754 48.7319 155.324 51.8879 153.372 55.0448C151.419 58.2017 149.103 60.563 146.424 62.1287C146.002 66.1411 145.936 68.8362 146.226 70.2141C146.375 70.924 146.614 71.4405 146.944 71.7636L138.692 75.1322L141.964 53.9754C140.525 59.1608 138.177 62.0956 134.92 62.7799C131.454 63.508 129.331 62.0139 128.55 58.2977C128.024 55.7924 128.179 52.7952 129.015 49.306C129.894 45.808 131.302 42.6564 133.242 39.851C135.181 37.0457 137.278 35.4062 139.533 34.9325C142.247 34.3623 143.955 35.7474 144.657 39.0878L144.788 39.7141L144.9 39.6251C144.851 37.1068 144.756 35.5137 144.615 34.8456C147.956 34.1438 150.012 33.4502 150.783 32.765L147.486 52.5538L146.847 57.9197C148.766 56.4702 150.57 54.369 152.259 51.6163C153.948 48.8636 155.043 46.6062 155.545 44.8441L157.661 45.5767ZM136.718 57.955C137.428 57.8059 138.089 57.3183 138.7 56.4924C139.344 55.6158 139.93 54.3591 140.458 52.7223C141.028 51.0766 141.446 49.7462 141.712 48.7311C142.012 47.6655 142.411 46.1428 142.911 44.1631C142.984 42.2294 142.92 40.7824 142.718 39.822C142.411 38.3606 141.798 37.7264 140.88 37.9193C139.752 38.1562 138.631 39.4599 137.516 41.8305C136.392 44.1593 135.559 46.7322 135.017 49.5491C134.509 52.3155 134.421 54.492 134.754 56.0787C135.061 57.5401 135.716 58.1656 136.718 57.955ZM159.735 57.5664C158.232 57.8822 157.038 57.6971 156.152 57.0111C155.267 56.3251 154.697 55.3767 154.443 54.1658C154.206 53.0384 154.321 51.0959 154.788 48.3383L156.493 37.7781C156.661 36.9146 156.67 36.1279 156.52 35.4181C156.31 34.4159 155.785 33.7851 154.946 33.5254C155.948 33.3149 157.516 32.7892 159.65 31.9485C161.826 31.099 163.134 30.4755 163.573 30.0779L160.358 49.3262C160.191 50.1897 160.173 50.9346 160.304 51.561C160.497 52.4796 161.053 52.8424 161.972 52.6494C164.101 52.202 166.036 48.9616 167.777 42.9281L169.919 29.4641L176.1 27.4462L172.885 46.6944C172.717 47.558 172.699 48.3029 172.831 48.9292C173.024 49.8478 173.58 50.2106 174.498 50.0177C175.835 49.7369 177.066 48.5409 178.192 46.4297C179.309 44.2766 180.219 41.9708 180.924 39.5121L183.039 40.2448C182.012 43.8613 180.574 47.0844 178.727 49.9139C176.922 52.7347 174.767 54.4083 172.261 54.9346C170.758 55.2504 169.564 55.0653 168.679 54.3794C167.794 53.6934 167.224 52.745 166.969 51.5341L166.864 51.033C164.825 54.8184 162.449 56.9961 159.735 57.5664ZM189.868 51.4971C187.154 52.0673 184.888 51.7587 183.069 50.5714C181.241 49.3422 180.068 47.4959 179.551 45.0323C178.726 41.1074 179.446 36.8578 181.712 32.2837C184.01 27.659 187.122 24.9343 191.047 24.1097C194.471 23.3904 196.516 24.6174 197.183 27.7908C197.762 30.5466 197.113 33.1679 195.238 35.6546C193.362 38.1414 191.026 39.6786 188.228 40.2664C187.226 40.4769 186.256 40.5282 185.318 40.4201C185.328 41.5078 185.417 42.4484 185.584 43.2417C185.917 44.8284 186.497 45.9274 187.323 46.5386C188.149 47.1498 189.334 47.2932 190.879 46.9686C193.635 46.3896 195.991 44.7392 197.948 42.0174C199.938 39.245 201.267 36.1318 201.937 32.6777C202.598 29.1818 202.603 25.889 201.954 22.7991C201.498 20.6278 200.816 19.3541 199.909 18.978C200.827 18.785 202.291 18.2813 204.3 17.4668C206.351 16.6437 207.596 16.0333 208.035 15.6357C207.901 16.4487 207.711 17.6221 207.467 19.1558C207.255 20.639 207.119 21.6487 207.057 22.1848C207.307 22.1322 207.708 22.0697 208.26 21.9974C208.845 21.8746 209.283 21.7825 209.575 21.7211C213.751 20.8438 216.679 19.9452 218.361 19.0252C217.164 21.6308 215.964 25.1529 214.76 29.5912C213.548 33.9878 213.174 37.2926 213.639 39.5056C213.946 40.967 214.642 41.5837 215.728 41.3556C217.064 41.0749 218.349 39.824 219.583 37.6029C220.849 35.3312 221.79 33.0628 222.404 30.7975L224.533 31.5927C223.256 35.4795 221.807 38.7487 220.184 41.4003C218.561 44.052 216.497 45.641 213.992 46.1673C212.364 46.5094 210.964 46.2803 209.793 45.48C208.664 44.6708 207.919 43.4103 207.56 41.6983C207.2 39.9864 207.258 37.7725 207.734 35.0566C208.251 32.332 208.791 30.126 209.352 28.4386C209.913 26.7512 210.479 25.1934 211.051 23.7653C209.992 24.1187 208.982 24.3962 208.022 24.598C207.479 24.712 206.823 24.8063 206.054 24.8807C205.732 27.913 205.191 30.8387 204.432 33.6577C203.664 36.4349 202.635 39.1143 201.346 41.6958C200.091 44.2267 198.471 46.3762 196.488 48.1443C194.539 49.8619 192.332 50.9795 189.868 51.4971ZM185.487 38.4227C188.108 37.8283 190.008 36.4919 191.184 34.4136C192.394 32.2848 192.818 30.3644 192.459 28.6524C192.196 27.3998 191.626 26.8656 190.749 27.0498C189.663 27.2779 188.584 28.5728 187.51 30.9346C186.479 33.2877 185.804 35.7837 185.487 38.4227Z" fill="black"/>
<path d="M257.642 6.90049L259.921 14.1113L267.583 12.8994C268.552 12.7461 269.12 13.9517 268.393 14.6012L261.909 20.3996L264.349 28.1131C264.623 28.9752 263.684 29.7149 262.906 29.253L256.367 25.3573L250.07 30.9877C249.326 31.6524 248.177 30.9097 248.479 29.9565L250.952 22.1325L244.523 18.301C243.731 17.8288 243.963 16.6289 244.871 16.4853L253.147 15.1763L255.768 6.9013C256.057 5.98773 257.352 5.98417 257.642 6.90049Z" fill="black"/>
<path d="M15.0413 57.6698L17.3199 64.8806L24.9824 63.6687C25.9517 63.5154 26.5197 64.7209 25.7924 65.3705L19.3081 71.1689L21.748 78.8824C22.0226 79.7445 21.0832 80.4842 20.3058 80.0223L13.7661 76.1266L7.46899 81.757C6.72519 82.4217 5.57644 81.679 5.87843 80.7257L8.35114 72.9018L1.92213 69.0703C1.13058 68.5981 1.36211 67.3981 2.27008 67.2545L10.546 65.9456L13.1675 57.6706C13.4569 56.757 14.7517 56.7535 15.0413 57.6698Z" fill="black"/>
</svg>
