<svg width="290" height="192" viewBox="0 0 290 192" fill="none" xmlns="http://www.w3.org/2000/svg">
<path d="M144.317 98.6723L145.565 99.1311C144.411 103.026 142.062 107.147 138.516 107.823C136.388 108.228 134.809 107.252 134.411 105.161C134.269 104.414 134.293 103.52 134.488 102.516L136.048 94.2506L133.995 94.6414L134.248 93.1234L136.338 92.7255L137.233 87.8746C137.334 87.3911 137.354 86.8845 137.275 86.4739C137.176 85.9512 136.897 85.5015 136.362 85.3326C137.416 84.9772 140.989 83.8328 141.522 83.3832L139.884 92.0504L142.721 91.5103L142.469 93.0283L139.594 93.5755L137.784 103.165C137.698 103.53 137.688 103.88 137.745 104.178C137.872 104.85 138.331 105.227 139.115 105.078C141.989 104.531 143.556 101.177 144.317 98.6723ZM159.078 94.8566L160.377 95.3829C159.717 98.2163 157.771 100.792 154.523 101.41L154.075 101.495C152.832 103.705 150.998 105.446 148.795 105.866C146.182 106.363 144.028 104.8 143.502 102.038C142.671 97.6705 145.949 90.509 150.839 89.5781C153.789 89.0167 155.305 91.0878 155.731 93.3276C156.072 95.1194 155.798 97.3378 155.003 99.4619C157.357 98.8204 158.544 96.931 159.078 94.8566ZM151.161 91.0642C150.974 91.0997 150.758 91.1797 150.578 91.2526C150.174 92.1804 149.554 94.0006 149.973 96.203C150.25 97.6589 150.881 98.7379 151.912 99.2766C152.693 97.0779 153.089 94.488 152.727 92.5842C152.5 91.3897 152.057 90.8937 151.161 91.0642ZM148.684 103.45C149.579 103.279 150.445 102.341 151.158 101.006C149.919 100.391 149.052 99.0861 148.675 97.1076C148.356 95.4278 148.555 94.036 148.886 92.9286C147.319 95.4704 146.689 99.884 147.08 101.937C147.308 103.132 147.9 103.599 148.684 103.45Z" fill="#FFDD00"/>
<path d="M49.2862 80.6308C41.2112 82.1679 35.7751 78.3165 34.3502 70.831C32.0949 58.9837 40.2505 39.902 53.866 37.3101C59.3475 36.2667 61.9856 38.5741 62.5802 41.698C63.4666 46.3544 59.7583 52.8626 52.8031 54.1866C52.1548 54.31 51.5064 54.4335 50.8356 54.439C55.3967 52.4103 58.0919 46.0338 57.4074 42.4384C57.0933 40.788 56.0212 39.6484 54.0172 40.0298C47.3568 41.2977 38.5112 57.3958 40.643 68.5947C41.765 74.4889 45.5341 76.6421 50.721 75.6547C56.6741 74.5215 63.0402 69.4617 65.0424 60.4076L67.1362 60.4976C64.5386 72.8411 57.2433 79.1161 49.2862 80.6308ZM86.8664 58.5741L88.918 59.4051C87.8762 63.8789 84.8024 67.9454 79.6745 68.9216L78.9672 69.0562C77.0049 72.5447 74.1081 75.2949 70.6306 75.9569C66.5047 76.7423 63.1033 74.2748 62.273 69.9132C60.9602 63.017 66.137 51.7095 73.8584 50.2396C78.5147 49.3532 80.9085 52.6233 81.5817 56.1598C82.1202 58.989 81.6876 62.4917 80.4327 65.8455C84.1488 64.8327 86.024 61.8494 86.8664 58.5741ZM74.3661 52.5861C74.0714 52.6422 73.729 52.7684 73.4455 52.8835C72.8082 54.3485 71.8283 57.2224 72.4903 60.7C72.9279 62.9987 73.9241 64.7025 75.5519 65.5531C76.7844 62.0813 77.4107 57.9921 76.8385 54.9861C76.4795 53.0999 75.7807 52.3168 74.3661 52.5861ZM70.4542 72.1426C71.8688 71.8733 73.2358 70.3915 74.3615 68.2838C72.4054 67.3125 71.036 65.2522 70.4413 62.1283C69.9364 59.476 70.251 57.2784 70.7732 55.5299C68.3001 59.5431 67.3057 66.512 67.9228 69.7538C68.2819 71.6399 69.2164 72.3782 70.4542 72.1426ZM90.1292 72.2451C87.1232 72.8174 85.6106 70.9676 85.2291 68.9636C84.9486 67.49 85.2603 65.5984 85.6563 63.5074L87.4425 53.6393C87.6026 52.8759 87.6335 52.076 87.5101 51.4277C87.353 50.6025 86.9124 49.8924 86.0677 49.6256C87.8949 49.2778 93.3737 47.2576 94.2158 46.5476L90.8598 64.5325C90.6997 65.2959 90.6575 66.0368 90.7698 66.6262C90.9156 67.3925 91.3702 67.8556 92.3133 67.6761C95.0246 67.16 96.872 62.1054 97.9277 58.6673L100.174 46.0852L106.004 44.3036L102.648 62.2884C102.488 63.0518 102.446 63.7928 102.558 64.3822C102.704 65.1484 103.159 65.6116 104.102 65.4321C106.99 64.8823 109.292 59.0082 110.311 55.6992L112.281 56.4236C110.546 62.0676 107.104 69.0137 101.918 70.0011C98.9115 70.5733 97.3989 68.7236 97.0174 66.7196L96.9277 66.248C95.2405 69.2566 93.0763 71.6841 90.1292 72.2451ZM134.14 51.1632L136.11 51.8876C134.375 57.5316 130.933 64.4778 125.687 65.4763C122.74 66.0373 121.073 64.3391 120.602 61.8636C119.648 56.8535 123.637 49.2535 122.998 45.8938C122.93 45.5402 122.647 44.3726 121.35 44.6194C119.759 44.9223 117.867 47.1759 116.137 52.2081L113.267 67.2909L107.668 68.3568L111.271 49.1033C111.445 48.093 111.44 47.4222 111.339 46.8917C111.159 45.9486 110.741 45.3564 109.837 45.1009C111.712 44.6829 115.998 43.1341 116.995 42.2725L116.014 47.7118L116.368 47.6444C118.232 43.3196 121.076 41.2514 123.433 40.8026C126.027 40.3089 128.367 41.6956 128.85 44.2301C129.635 48.356 125.643 56.262 126.283 59.6217C126.474 60.6237 126.987 61.0756 127.93 60.8961C130.818 60.3463 133.12 54.4722 134.14 51.1632ZM148.834 48.3661L150.804 49.0904C148.982 55.2397 145.273 61.7479 139.674 62.8138C136.314 63.4534 133.822 61.9122 133.194 58.6115C132.969 57.4327 133.006 56.0209 133.315 54.4352L135.778 41.3844L132.536 42.0015L132.935 39.6046L136.235 38.9763L137.648 31.317C137.808 30.5536 137.839 29.7537 137.716 29.1054C137.559 28.2802 137.118 27.5701 136.273 27.3033C137.938 26.7422 143.579 24.9353 144.421 24.2253L141.835 37.9104L146.314 37.0577L145.916 39.4545L141.377 40.3185L138.518 55.4602C138.383 56.0356 138.367 56.5885 138.456 57.06C138.658 58.121 139.382 58.7161 140.62 58.4804C145.159 57.6165 147.632 52.3206 148.834 48.3661ZM166.099 53.6302C169.223 53.0355 171.525 47.1614 172.545 43.8524L174.515 44.5768C172.78 50.2208 169.338 57.167 163.915 58.1992C160.909 58.7715 159.632 56.8768 159.251 54.8728C159.139 54.2834 159.122 53.5536 159.164 52.8127C157.831 57.0366 155.722 59.7588 152.599 60.3535C149.121 61.0155 147.291 59.1039 146.708 56.039C145.35 48.907 150.698 35.6124 157.418 34.3333C159.834 33.8733 161.187 35.2038 161.874 37.2106L164.495 22.4197C164.655 21.6563 164.697 20.9154 164.562 20.2081C164.416 19.4418 163.987 18.7906 163.013 18.4874C164.723 18.162 170.437 16.0969 171.268 15.328L164.646 50.4865C164.486 51.2499 164.444 51.9909 164.556 52.5803C164.702 53.3466 165.156 53.8097 166.099 53.6302ZM154.37 55.863C157.199 55.3244 159.066 48.1283 160.42 43.0456C160.504 41.5636 160.53 40.0929 160.316 38.9731C160.081 37.7353 159.57 36.9774 158.627 37.1569C155.267 37.7965 151.699 49.5308 152.563 54.0693C152.81 55.366 153.368 56.0537 154.37 55.863ZM195.597 37.8761L197.649 38.7071C196.607 43.1808 193.534 47.2474 188.406 48.2235L187.698 48.3582C185.736 51.8467 182.839 54.5969 179.362 55.2589C175.236 56.0443 171.834 53.5768 171.004 49.2151C169.691 42.319 174.868 31.0114 182.589 29.5416C187.246 28.6552 189.64 31.9253 190.313 35.4618C190.851 38.291 190.419 41.7936 189.164 45.1475C192.88 44.1347 194.755 41.1514 195.597 37.8761ZM183.097 31.888C182.802 31.9441 182.46 32.0704 182.177 32.1854C181.539 33.6505 180.559 36.5244 181.221 40.0019C181.659 42.3007 182.655 44.0044 184.283 44.855C185.515 41.3833 186.142 37.2941 185.57 34.288C185.211 32.4019 184.512 31.6188 183.097 31.888ZM179.185 51.4446C180.6 51.1753 181.967 49.6935 183.093 47.5858C181.136 46.6145 179.767 44.5542 179.172 41.4303C178.667 38.7779 178.982 36.5804 179.504 34.8318C177.031 38.8451 176.037 45.814 176.654 49.0558C177.013 50.9419 177.948 51.6802 179.185 51.4446ZM229.439 30.579L231.42 31.3623C230.423 37.3545 227.276 40.3965 224.27 40.9688C222.915 41.2268 221.587 40.9909 220.476 40.2863C217.75 44.8974 214.126 48.6411 210.354 49.3592C207.23 49.9539 205.541 48.1377 205.159 46.1337C203.781 48.8392 201.866 50.9749 198.86 51.5471C195.854 52.1193 194.342 50.2696 193.96 48.2655C193.68 46.792 193.991 44.9003 194.387 42.8094L196.174 32.9413C196.334 32.1779 196.365 31.378 196.241 30.7297C196.084 29.9045 195.644 29.1943 194.799 28.9276C196.508 28.6022 202.105 26.5596 202.947 25.8496L199.591 43.8344C199.431 44.5978 199.389 45.3388 199.501 45.9282C199.647 46.6944 200.101 47.1576 201.044 46.9781C203.284 46.5517 204.752 43.0351 205.746 39.9142L208.33 25.2524L214.146 23.7178L210.79 41.7026C210.652 42.5839 210.551 43.3361 210.663 43.9255C210.798 44.6328 211.182 45.0482 212.066 44.8799C213.894 44.5321 216.347 41.3777 218.231 37.4766C218.034 37.0864 217.886 36.6261 217.773 36.0367C216.954 31.734 218.367 22.792 221.963 22.1076C223.2 21.872 223.933 22.832 224.281 24.6591C224.954 28.1956 223.909 32.9753 221.891 37.4517C222.581 37.87 223.356 38.089 224.181 37.9319C226.185 37.5504 228.265 35.3222 229.439 30.579ZM252.656 28.6025L254.626 29.3268C252.891 34.9709 249.449 41.917 244.203 42.9156C241.256 43.4766 239.589 41.7784 239.118 39.3028C238.164 34.2928 242.154 26.6928 241.514 23.3331C241.447 22.9794 241.163 21.8118 239.867 22.0587C238.275 22.3616 236.383 24.6152 234.654 29.6473L231.784 44.7301L226.184 45.796L229.787 26.5426C229.961 25.5322 229.956 24.8614 229.855 24.331C229.675 23.3879 229.257 22.7956 228.354 22.5401C230.228 22.1221 234.514 20.5733 235.511 19.7118L234.531 25.151L234.884 25.0837C236.749 20.7588 239.592 18.6906 241.95 18.2418C244.543 17.7481 246.884 19.1349 247.366 21.6694C248.152 25.7953 244.16 33.7013 244.799 37.0609C244.99 38.0629 245.503 38.5149 246.446 38.3354C249.335 37.7856 251.637 31.9114 252.656 28.6025Z" fill="#FFDD00"/>
<path d="M87.386 155.646L89.3562 156.37C86.8461 164.361 83.5842 169.685 78.3384 170.683C74.3303 171.446 72.7533 168.937 72.1923 165.99C71.6313 163.043 71.9292 158.833 71.3346 155.709C71.2224 155.119 71.0625 154.6 70.9138 154.14C70.4534 154.289 70.0521 154.426 69.7574 154.482C68.107 154.796 66.9732 153.974 66.8049 153.09C66.659 152.323 67.1727 151.493 68.5873 151.223C69.2357 151.1 70.2601 151.027 71.4698 151.286C75.6099 148.97 78.5631 143.95 77.6655 139.234C77.0708 136.11 74.8678 133.842 71.1912 133.137C69.1617 134.99 67.6148 139.376 66.6796 143.769L63.4952 158.484C61.3189 168.548 59.0702 173.74 56.4118 177.422C55.8284 174.357 50.2352 169.681 48.3351 169.004C53.8308 167.714 56.5793 160.655 58.9209 153.064C61.5882 144.616 63.8739 135.447 69.016 132.941C67.7221 132.882 66.344 133.022 64.8116 133.314C55.2041 135.142 48.1136 142.172 49.1459 147.595C49.46 149.245 50.518 150.632 52.3452 150.284C53.9955 149.97 55.4215 148.477 55.1832 146.263C56.0055 146.411 56.5976 147.276 56.822 148.455C57.2933 150.93 56.0102 154.778 51.3538 155.664C47.7584 156.349 44.1127 154.844 43.2151 150.129C41.5208 141.229 51.811 133.04 63.5404 130.807C73.5605 128.9 81.9942 131.814 83.3182 138.769C84.5636 145.312 78.5512 150.304 73.9507 152.768C76.5075 153.686 77.4419 155.707 77.8458 157.829C78.1712 159.538 78.2019 161.303 78.4487 162.6C78.718 164.015 79.2512 164.89 80.7837 164.599C83.9076 164.004 86.1619 159.483 87.386 155.646ZM111.475 151.061L113.445 151.785C111.71 157.429 108.268 164.375 103.081 165.362C100.075 165.935 98.7982 164.04 98.4168 162.036C98.2933 161.388 98.2766 160.658 98.3777 159.906C96.9963 164.2 94.8882 166.922 91.7643 167.517C88.2868 168.179 86.457 166.267 85.8736 163.202C84.5159 156.07 89.8642 142.776 96.5835 141.497C99.2948 140.98 100.608 142.746 101.091 145.28C101.147 145.575 101.203 145.87 101.2 146.176L101.531 145.991C101.531 144.708 101.739 142.592 101.703 141.438C102.469 141.292 106.326 140.375 107.168 139.665L103.812 157.65C103.652 158.413 103.609 159.154 103.722 159.744C103.868 160.51 104.322 160.973 105.265 160.793C108.153 160.244 110.455 154.37 111.475 151.061ZM93.5358 163.026C96.365 162.488 98.2323 155.292 99.5857 150.209C99.67 148.727 99.6955 147.256 99.4823 146.136C99.2467 144.899 98.7359 144.141 97.7929 144.32C94.4332 144.96 90.8646 156.694 91.7285 161.233C91.9754 162.529 92.5338 163.217 93.5358 163.026ZM119.463 162.488C114.277 163.476 110.914 160.573 110.084 156.211C108.816 149.551 113.098 138.353 121.055 136.838C124.591 136.165 126.623 137.855 127.05 140.095C127.577 142.865 125.589 146.541 120.992 147.417C120.52 147.506 120.038 147.537 119.496 147.579C121.624 146.563 122.977 142.763 122.595 140.759C122.438 139.934 121.972 139.412 121.147 139.569C117.964 140.175 114.797 149.207 115.863 154.806C116.368 157.458 117.721 158.789 120.55 158.25C126.149 157.184 130.026 150.278 130.905 146.873L132.766 147.985C130.784 154.897 125.829 161.276 119.463 162.488ZM150.365 143.169L152.225 144.281C150.243 151.193 145.171 157.595 138.746 158.818C133.736 159.771 130.231 157.079 129.367 152.541C128.065 145.704 132.675 134.626 140.514 133.134C143.638 132.539 145.639 133.746 146.2 136.693C147.21 141.998 142.489 147.356 137.42 148.32C136.536 148.489 135.688 148.528 134.866 148.379C134.868 149.356 134.919 150.262 135.076 151.088C135.592 153.799 137.003 155.118 139.892 154.568C145.727 153.458 149.57 146.374 150.365 143.169ZM140.242 135.873C138.179 136.266 135.683 141.444 135.048 146.451C140.485 145.172 142.299 139.94 141.805 137.347C141.614 136.345 141.067 135.716 140.242 135.873ZM182.089 108.24C195.528 105.682 202.344 112.935 204.072 122.012C206.215 133.27 200.541 147.421 189.873 149.452C184.981 150.383 181.234 148.348 177.804 146.374C174.823 150.606 170.894 153.064 167.121 153.783C162.583 154.646 159.979 152.516 159.451 149.746C158.789 146.268 161.349 141.75 167.185 140.639C170.073 140.089 172.551 140.595 174.897 141.369C178.404 131.235 179.22 115.627 186.905 110.438C185.74 110.416 184.539 110.522 183.242 110.769C174.224 112.486 166.78 119.583 167.812 125.006C168.126 126.656 169.184 128.043 171.012 127.695C172.662 127.381 174.088 125.888 173.85 123.673C174.672 123.822 175.264 124.687 175.488 125.865C175.96 128.341 174.677 132.189 170.02 133.075C166.425 133.76 162.779 132.255 161.881 127.539C160.187 118.639 170.713 110.406 182.089 108.24ZM187.246 144.638C195.557 143.056 200.465 130.334 198.658 120.844C197.693 115.775 194.766 111.629 189.386 110.638C187.059 112.852 185.894 119.243 184.888 123.587L181.906 136.798C181.33 139.229 180.581 141.387 179.61 143.343C182.06 144.343 184.535 145.154 187.246 144.638ZM167.212 150.406C170.218 149.834 172.227 147.558 173.741 144.277C171.947 143.519 170.162 143.126 168.158 143.507C164.681 144.169 163.044 146.802 163.392 148.629C163.639 149.926 164.913 150.844 167.212 150.406ZM232.696 127.985L234.667 128.709C232.931 134.353 229.49 141.299 224.303 142.287C221.297 142.859 220.02 140.964 219.638 138.96C219.515 138.312 219.498 137.582 219.599 136.83C218.218 141.124 216.11 143.846 212.986 144.441C209.508 145.103 207.679 143.191 207.095 140.126C205.738 132.995 211.086 119.7 217.805 118.421C220.516 117.905 221.83 119.67 222.312 122.205C222.368 122.499 222.424 122.794 222.422 123.1L222.753 122.915C222.753 121.632 222.961 119.516 222.925 118.362C223.691 118.217 227.547 117.299 228.389 116.589L225.033 134.574C224.873 135.337 224.831 136.078 224.943 136.668C225.089 137.434 225.544 137.897 226.487 137.718C229.375 137.168 231.677 131.294 232.696 127.985ZM214.757 139.951C217.587 139.412 219.454 132.216 220.807 127.133C220.892 125.651 220.917 124.18 220.704 123.061C220.468 121.823 219.958 121.065 219.015 121.244C215.655 121.884 212.086 133.618 212.95 138.157C213.197 139.454 213.755 140.141 214.757 139.951ZM258.254 124.219C256.701 129.218 252.981 136.95 247.059 139.848L246.812 141.117C245.983 145.428 243.083 154.897 234.36 156.558C229.998 157.388 228.241 155.218 227.882 153.332C226.839 147.851 233.64 142.83 241.521 140.597L241.794 139.14L242.661 134.394C241.129 137.251 239.226 139.446 236.396 139.985C233.39 140.557 231.878 138.707 231.496 136.703C231.216 135.23 231.528 133.338 231.923 131.247L233.71 121.379C233.87 120.615 233.901 119.816 233.777 119.167C233.62 118.342 233.18 117.632 232.335 117.365C233.999 116.804 239.641 114.997 240.483 114.287L237.127 132.272C236.967 133.035 236.925 133.776 237.037 134.366C237.183 135.132 237.637 135.595 238.58 135.416C241.174 134.922 243.018 130.173 244.085 126.794L246.442 113.825C247.691 113.648 251.488 112.742 252.271 112.043L247.666 136.618C251.741 133.643 255.469 126.276 256.284 123.495L258.254 124.219ZM233.782 154.164C237.849 153.389 239.977 147.243 241.005 143.016C236.376 144.691 230.964 149.631 231.593 152.931C231.761 153.815 232.485 154.411 233.782 154.164Z" fill="#FFDD00"/>
<g clip-path="url(#clip0_8476_1604)">
<path d="M114.826 97.2486L116.361 102.205C116.407 102.354 116.539 102.454 116.688 102.454H121.656C121.989 102.454 122.127 102.9 121.858 103.105L117.838 106.168C117.718 106.26 117.667 106.423 117.713 106.571L119.249 111.528C119.351 111.859 118.989 112.135 118.721 111.93L114.701 108.866C114.581 108.775 114.418 108.775 114.298 108.866L110.278 111.93C110.009 112.135 109.648 111.859 109.75 111.528L111.285 106.571C111.331 106.423 111.281 106.26 111.161 106.168L107.142 103.105C106.873 102.9 107.011 102.454 107.343 102.454H112.312C112.46 102.454 112.592 102.354 112.638 102.205L114.174 97.2486C114.277 96.9171 114.723 96.9171 114.826 97.2486Z" fill="#FFDD00"/>
</g>
<g clip-path="url(#clip1_8476_1604)">
<path d="M177.304 80.2486L178.737 85.2055C178.78 85.3536 178.903 85.4541 179.042 85.4541H183.679C183.989 85.4541 184.118 85.9 183.867 86.105L180.115 89.1684C180.003 89.2601 179.956 89.4226 179.999 89.5707L181.432 94.5276C181.528 94.8591 181.19 95.1349 180.939 94.9299L177.188 91.8665C177.075 91.7748 176.923 91.7748 176.811 91.8665L173.059 94.9299C172.809 95.1349 172.471 94.8591 172.567 94.5276L174 89.5707C174.043 89.4226 173.996 89.2601 173.884 89.1684L170.132 86.105C169.882 85.9 170.011 85.4541 170.321 85.4541H174.958C175.096 85.4541 175.219 85.3536 175.262 85.2055L176.696 80.2486C176.791 79.9171 177.209 79.9171 177.304 80.2486Z" fill="#FFDD00"/>
</g>
<defs>
<clipPath id="clip0_8476_1604">
<rect width="15" height="15" fill="white" transform="translate(107 97)"/>
</clipPath>
<clipPath id="clip1_8476_1604">
<rect width="14" height="15" fill="white" transform="translate(170 80)"/>
</clipPath>
</defs>
</svg>
