<svg width="308" height="109" viewBox="0 0 308 109" fill="none" xmlns="http://www.w3.org/2000/svg">
<path d="M46.5377 65V33H59.1377V38.28H52.9377V46.16H57.5377V51.64H52.9377V65H46.5377ZM67.827 65H61.427V33H67.827V65ZM81.9908 49.56V33H87.3508V65H81.7508L76.3508 48.72V65H70.9908V33H76.8308L81.9908 49.56ZM96.9286 65H90.5286V33H96.9286V65ZM115.292 57.6C115.292 61.68 112.372 65.4 107.452 65.4C102.572 65.4 99.2123 62.36 99.2123 59.12V54.84H105.212V57.84C105.212 59.04 105.932 59.92 107.172 59.92C108.372 59.92 108.932 59.24 108.932 57.84C108.932 55.2 107.212 53.04 104.412 50.28C101.532 47.4 99.5723 44.04 99.5723 40.4C99.5723 36.04 102.452 32.6 107.612 32.6C111.852 32.6 115.132 35.64 115.132 38.88V43.16H109.092V39.92C109.092 38.8 108.452 38.08 107.612 38.08C106.772 38.08 105.932 38.8 105.932 39.92C105.932 42.32 106.612 43.12 109.812 46.88C112.372 49.88 115.292 53.04 115.292 57.6ZM127.029 46.4V33H133.469V65H127.029V52.08H124.149V65H117.749V33H124.149V46.4H127.029ZM148.942 33V38.28H142.742V45.56H146.822V51.24H142.742V59.32H148.942V65H136.342V33H148.942ZM151.303 33H159.143C162.223 33 165.943 34.76 165.943 38.84V46C165.943 47.52 164.903 48.68 163.263 49.52C164.903 50.36 166.063 51.52 166.063 53.04V59.64C166.063 61.68 166.503 63.44 166.863 65H160.663C160.183 63.6 159.863 61.72 159.863 60.04V53.32C159.863 52.64 159.423 52.08 158.543 52.08H157.703V65H151.303V33ZM157.703 46.8H158.623C159.303 46.8 159.703 46.44 159.703 45.52V39.96C159.703 39.04 159.303 38.68 158.623 38.68H157.703V46.8ZM198.701 33V65H192.301V44.64L188.301 65H184.101L180.501 44.6V65H174.741V33H184.501L186.861 47.6L189.381 33H198.701ZM214.177 33V38.28H207.977V45.56H212.057V51.24H207.977V59.32H214.177V65H201.577V33H214.177ZM216.538 33H224.898C227.978 33 231.898 34.76 231.898 38.84V59.16C231.898 63.24 227.978 65 224.898 65H216.538V33ZM222.938 59.36H224.378C225.058 59.36 225.458 59 225.458 58.08V39.96C225.458 39.04 225.058 38.68 224.378 38.68H222.938V59.36ZM239.585 60L238.985 65H233.305L237.545 33H245.185L249.505 65H242.865L242.465 60H239.585ZM242.105 54.32L241.305 43.8L240.105 54.32H242.105ZM258.017 33V59.32H264.177V65H251.577V33H258.017Z" fill="#FFDD00"/>
<g clip-path="url(#clip0_14320_2155)">
<path d="M293.174 33.4972L296.347 43.411C296.441 43.7072 296.714 43.9081 297.021 43.9081H307.29C307.976 43.9081 308.262 44.8 307.706 45.2099L299.398 51.3369C299.15 51.5202 299.046 51.8453 299.141 52.1415L302.314 62.0553C302.526 62.7182 301.778 63.2698 301.223 62.8599L292.915 56.7329C292.667 56.5496 292.33 56.5496 292.082 56.7329L283.775 62.8599C283.219 63.2698 282.472 62.7182 282.684 62.0553L285.857 52.1415C285.951 51.8453 285.848 51.5202 285.6 51.3369L277.293 45.2099C276.738 44.8 277.024 43.9081 277.71 43.9081H287.978C288.285 43.9081 288.557 43.7072 288.653 43.411L291.826 33.4972C292.038 32.8343 292.962 32.8343 293.174 33.4972Z" fill="#FFE400"/>
</g>
<g clip-path="url(#clip1_14320_2155)">
<path d="M16.174 33.4972L19.3468 43.411C19.4414 43.7072 19.7135 43.9081 20.0211 43.9081H30.2895C30.9764 43.9081 31.2619 44.8 30.7059 45.2099L22.3981 51.3369C22.1497 51.5202 22.0456 51.8453 22.141 52.1415L25.3138 62.0553C25.526 62.7182 24.7783 63.2698 24.2231 62.8599L15.9153 56.7329C15.6669 56.5496 15.3301 56.5496 15.0825 56.7329L6.77471 62.8599C6.21949 63.2698 5.47184 62.7182 5.68399 62.0553L8.85678 52.1415C8.95142 51.8453 8.84811 51.5202 8.59968 51.3369L0.293474 45.2099C-0.261745 44.8 0.0237508 43.9081 0.709888 43.9081H10.9783C11.2851 43.9081 11.5572 43.7072 11.6526 43.411L14.8262 33.4972C15.0383 32.8343 15.9619 32.8343 16.174 33.4972Z" fill="#FFE400"/>
</g>
<defs>
<clipPath id="clip0_14320_2155">
<rect width="31" height="30" fill="white" transform="translate(277 33)"/>
</clipPath>
<clipPath id="clip1_14320_2155">
<rect width="31" height="30" fill="white" transform="translate(0 33)"/>
</clipPath>
</defs>
</svg>
