<svg width="303" height="70" viewBox="0 0 303 70" fill="none" xmlns="http://www.w3.org/2000/svg">
<path d="M210.317 27.8895C210.317 30.1945 209.482 31.0987 207.911 31.0987H204.394V13.8525H207.911C209.482 13.8525 210.317 14.7568 210.317 17.0618V27.8895ZM214.014 68.499H225.854V68.1975C224.933 64.9883 224.098 61.578 224.098 57.3699V45.1356C224.098 41.6249 221.786 38.1201 218.088 36.2111C221.791 34.308 223.826 30.6968 223.826 27.3871V15.7557C223.826 6.73066 217.074 1.71875 210.131 1.71875H190.148V68.493H204.399V42.1214H207.639C209.673 42.1214 210.693 44.2254 210.693 45.9335V58.1619C210.693 62.6773 211.805 68.4871 214.025 68.4871M262.215 53.4573V1.72466H248.52V53.4573C248.52 55.5614 247.037 56.7671 245.188 56.7671C243.525 56.7671 242.041 55.5614 242.041 53.4573V1.72466H227.703V53.4573C227.703 62.6832 235.289 70.0002 245.188 70.0002C255.087 70.0002 262.209 62.6832 262.209 53.4573M302.737 68.499V1.72466H290.247V36.1166L286.915 26.5892L278.773 1.72466H266.191V68.499H278.773V34.509L282.29 43.9358L290.989 68.499H302.737Z" fill="#FFDD00"/>
<path d="M33.968 57.2467V45.0183C33.968 41.5135 31.6492 38.0028 27.9502 36.0997C31.6492 34.1966 33.6897 30.5854 33.6897 27.2816V15.6502C33.6897 6.63115 26.9354 1.60742 19.9901 1.60742H0V68.3875H14.2506V42.0159H17.4914C19.5264 42.0159 20.5466 44.12 20.5466 45.8221V58.0564C20.5466 62.5659 21.6596 68.3816 23.8747 68.3816H35.7247V68.0802C34.7972 64.8709 33.968 61.4607 33.968 57.2467ZM20.1756 27.7781C20.1756 30.0831 19.3409 30.9873 17.7696 30.9873H14.2506V13.7471H17.7696C19.3409 13.7471 20.1756 14.6514 20.1756 16.9505V27.784V27.7781Z" fill="#F9F9F4"/>
<path d="M110.878 52.4429V43.6189H98.384V52.6438C98.384 54.9488 96.9983 56.6569 94.4013 56.6569C91.8043 56.6569 90.5167 54.9547 90.5167 52.6438V17.3477C90.5167 15.0427 91.8098 13.3346 94.4013 13.3346C96.9928 13.3346 98.384 15.0368 98.384 17.3477V26.3727H110.878V17.5487C110.878 7.22343 104.582 0.101562 94.4013 0.101562C84.2207 0.101562 75.9824 7.51895 75.9824 18.447V51.5327C75.9824 62.5613 83.8497 69.8782 94.4013 69.8782C104.953 69.8782 110.878 62.8627 110.878 52.4311" fill="#F9F9F4"/>
<path d="M141.33 29.3798L149.89 2.62399L150.708 1.60742H136.425L128.28 30.485V1.60742H114.023V68.3816H128.28V51.6378L131.242 43.0147L136.796 68.3816H151.232L141.33 29.3798Z" fill="#F9F9F4"/>
<path d="M176.126 40.7097L189.269 1.60742H175.198L170.021 25.1657L164.096 1.60742H150.211L149.889 2.62399L161.968 40.7097V68.3816H176.126V40.7097Z" fill="#F9F9F4"/>
<path d="M179.922 65.1889H179.18V64.5742H181.318V65.1889H180.576V67.7658H179.922V65.1889Z" fill="white"/>
<path d="M184.021 65.0884L183.394 67.7658H182.952L182.324 65.0884L182.346 67.7658H181.773V64.5742H182.652L183.17 66.6369L183.688 64.5742H184.567V67.7658H183.999L184.021 65.0884Z" fill="white"/>
<path d="M55.0575 69.8948C44.937 69.8948 37.1406 62.8557 37.1406 52.3945V17.3998C37.1406 7.03913 44.937 0 55.0575 0C65.1781 0 72.8817 7.03913 72.8817 17.3998V52.3945C72.8817 62.8557 65.0854 69.8948 55.0575 69.8948ZM58.3092 16.4896C58.3092 14.3797 56.8252 13.174 55.0575 13.174C53.2899 13.174 51.7131 14.3797 51.7131 16.4896V53.2988C51.7131 55.4087 53.2899 56.6203 55.0575 56.6203C56.8252 56.6203 58.3092 55.4146 58.3092 53.2988V16.4896Z" fill="#F9F9F4"/>
</svg>
