<svg width="1497" height="491" viewBox="0 0 1497 491" fill="none" xmlns="http://www.w3.org/2000/svg">
<path d="M691.656 111.518L695.035 116.209C689.109 120.56 684.768 127.812 682.748 141.181L676.412 182.104C672.049 210.125 662.036 223.511 648.143 230.012C644.472 222.018 635.246 209.906 629.892 206.665C632.563 206.913 635.02 206.896 637.376 206.441C652.398 203.539 659.2 186.192 664.523 167.758C670.026 149.441 673.87 129.918 683.071 121.727C674.697 120.749 665.312 120.73 657.507 122.238C641.895 125.255 632.159 134.465 634.764 145.871C636.234 152.305 640.551 154.372 644.822 153.547C649.093 152.722 652.254 149.057 651.165 143.618C653.575 144.069 655.388 146.62 656.156 149.983C658.194 158.903 650.935 165.497 642.246 167.176C633.115 168.94 622.419 165.204 619.513 152.482C616.139 137.712 625.825 120.878 651.451 115.927C666.032 113.11 677.115 115.854 685.068 114.317C687.425 113.862 690.123 112.883 691.656 111.518ZM752.736 170.105L757.756 171.884C753.887 185.915 745.841 203.197 732.733 205.729C725.369 207.152 721.027 202.952 719.624 196.81C716.784 184.381 726.15 165.47 724.246 157.135C724.045 156.257 723.23 153.361 719.99 153.987C716.013 154.756 711.452 160.37 707.545 172.882L701.652 210.36L687.66 213.063L695.03 165.222C695.38 162.712 695.307 161.047 695.006 159.73C694.471 157.391 693.368 155.924 691.072 155.299C695.751 154.242 706.396 150.354 708.827 148.204L706.84 161.719L707.723 161.549C712.032 150.791 719.003 145.628 724.894 144.489C731.374 143.237 737.383 146.657 738.82 152.945C741.158 163.181 731.812 182.851 733.717 191.186C734.284 193.672 735.616 194.789 737.973 194.334C745.189 192.94 750.463 178.332 752.736 170.105ZM798.652 154.821L803.886 156.864C802.114 167.283 798.43 174.714 790.329 176.279C786.648 176.99 783.549 176.215 780.724 174.623C784.02 201.164 776.262 231.826 759.178 235.127C751.225 236.664 747.372 231.911 745.969 225.77C745.1 221.968 745.276 217.353 745.833 213.733L761.573 110.988C761.909 109.091 761.95 107.25 761.549 105.496C761.115 103.595 759.977 101.982 757.501 101.239C761.772 100.414 775.818 95.2572 777.84 93.3396L769.007 150.93C772.636 149.312 777.945 146.302 779.967 144.384C779.819 147.772 779.347 155.803 780.783 162.091C781.953 167.209 784.361 171.019 788.926 170.137C794.376 169.084 797.458 162.381 798.652 154.821ZM761.834 224.537C770.67 222.829 777.424 191.14 774.689 169.07C771.839 165.346 769.772 161.012 767.953 157.088L758.865 216.254C758.482 218.619 758.475 220.605 758.809 222.067C759.243 223.968 760.214 224.85 761.834 224.537ZM853.233 146.719L858.466 148.762C856.239 159.88 848.865 170.008 836.052 172.483L834.285 172.825C829.656 181.506 822.611 188.364 813.922 190.043C803.612 192.035 794.839 185.943 792.367 175.122C788.458 158.012 800.486 129.884 819.779 126.157C831.414 123.909 837.722 132.004 839.727 140.778C841.33 147.797 840.55 156.498 837.689 164.838C846.947 162.286 851.402 154.86 853.233 146.719ZM821.262 131.978C820.526 132.12 819.676 132.437 818.973 132.725C817.499 136.369 815.287 143.515 817.258 152.143C818.561 157.846 821.216 162.066 825.386 164.161C828.181 155.529 829.396 145.369 827.693 137.912C826.624 133.232 824.797 131.295 821.262 131.978ZM813.142 180.574C816.677 179.891 819.985 176.198 822.632 170.954C817.626 168.562 814 163.46 812.229 155.71C810.726 149.129 811.324 143.67 812.484 139.323C806.616 149.313 804.727 166.626 806.565 174.669C807.634 179.348 810.05 181.172 813.142 180.574Z" fill="#FFDD00"/>
<g clip-path="url(#clip0_12398_2152)">
<path d="M504.212 187.814L507.881 199.424L520.218 197.472C521.778 197.226 522.693 199.167 521.522 200.212L511.082 209.548L515.01 221.967C515.452 223.355 513.94 224.545 512.688 223.802L502.159 217.53L492.021 226.595C490.823 227.665 488.974 226.469 489.46 224.934L493.441 212.338L483.091 206.169C481.816 205.409 482.189 203.477 483.651 203.246L496.975 201.138L501.196 187.815C501.662 186.345 503.746 186.339 504.212 187.814Z" fill="#FFDD00"/>
</g>
<g clip-path="url(#clip1_12398_2152)">
<path d="M968.212 103.814L971.881 115.424L984.218 113.472C985.778 113.226 986.693 115.167 985.522 116.212L975.082 125.548L979.01 137.967C979.452 139.355 977.94 140.545 976.688 139.802L966.159 133.53L956.021 142.595C954.823 143.665 952.974 142.469 953.46 140.934L957.441 128.338L947.091 122.169C945.816 121.409 946.189 119.477 947.651 119.246L960.975 117.138L965.196 103.815C965.662 102.345 967.746 102.339 968.212 103.814Z" fill="#FFDD00"/>
</g>
<defs>
<clipPath id="clip0_12398_2152">
<rect width="40.18" height="38.59" fill="white" transform="translate(480 190.277) rotate(-8.98738)"/>
</clipPath>
<clipPath id="clip1_12398_2152">
<rect width="40.18" height="38.59" fill="white" transform="translate(944 106.277) rotate(-8.98738)"/>
</clipPath>
</defs>
</svg>
