<svg width="1557" height="188" viewBox="0 0 1557 188" fill="none" xmlns="http://www.w3.org/2000/svg">
<path d="M39.4583 183.952L17.6985 84.7235V183.952H-0.00195312V2.27148H21.5384L39.6777 103.111V2.27148H57.1221V183.952H39.4217H39.4583Z" fill="#FFDD00"/>
<path d="M92.7434 186.222C78.0052 186.222 65.7539 173.512 65.7539 155.124V31.0981C65.7539 12.7103 78.0052 0 92.7434 0C107.482 0 119.733 12.7103 119.733 31.0981V155.087C119.733 173.475 107.482 186.186 92.7434 186.186V186.222ZM98.1925 29.523C98.1925 25.4206 96.1445 22.9298 92.7434 22.9298C89.1228 22.9298 87.0749 25.4206 87.0749 29.523V156.699C87.0749 160.802 89.1228 163.292 92.7434 163.292C96.1445 163.292 98.1925 160.802 98.1925 156.699V29.523Z" fill="#FFDD00"/>
<path d="M164.168 183.952H143.542L125.402 2.27148H146.248L154.403 110.584L163.253 2.27148H182.526L164.168 183.952Z" fill="#FFDD00"/>
<path d="M188.523 183.952V2.27148H232.518V24.0658H209.625V79.4855H225.058V101.28H209.625V162.157H232.518V183.952H188.523Z" fill="#FFDD00"/>
<path d="M304.05 183.952V56.7755L288.178 183.952H273.44L259.141 56.5558V183.952H240.307V2.27148H271.355L283.131 104.906L298.162 2.27148H325.152V183.952H304.05Z" fill="#FFDD00"/>
<path d="M361.649 183.952H334.221V2.27148H361.649C372.291 2.27148 385.676 7.72922 385.676 30.8788V72.6725C385.676 81.317 381.836 86.7381 375.912 91.5365C381.8 96.2983 385.676 101.756 385.676 110.4V155.381C385.676 178.531 372.291 183.988 361.649 183.988V183.952ZM364.831 31.355C364.831 26.117 363.478 24.1024 360.991 24.1024H355.542V81.7932H360.991C363.478 81.7932 364.831 79.742 364.831 74.5406V31.3916V31.355ZM364.831 109.668C364.831 104.43 363.478 102.415 360.991 102.415H355.542V162.377H360.991C363.478 162.377 364.831 160.326 364.831 155.125V109.705V109.668Z" fill="#FFDD00"/>
<path d="M394.344 183.952V2.27148H438.339V24.0658H415.445V79.4855H430.878V101.28H415.445V162.157H438.339V183.952H394.344Z" fill="#FFDD00"/>
<path d="M479.921 183.952C478.349 176.003 477.215 165.344 477.215 155.784V113.074C477.215 108.972 475.642 105.822 472.461 105.822H467.487V183.952H446.166V2.27148H473.594C484.237 2.27148 497.622 7.72922 497.622 30.8788V77.2146C497.622 85.859 493.526 91.2801 487.857 96.0785C493.526 100.84 498.06 106.298 498.06 114.942V153.55C498.06 165.124 499.633 175.124 501.023 183.988H479.921V183.952ZM476.739 31.355C476.739 26.117 475.386 24.1024 472.899 24.1024H467.45V85.1997H472.899C475.386 85.1997 476.739 83.1485 476.739 77.9471V31.3916V31.355Z" fill="#FFDD00"/>
<path d="M562.244 186.223C547.286 186.223 537.521 171.242 537.521 152.854V111.976C537.521 104.467 540.484 94.9435 546.811 92.2329C540.447 89.266 537.521 79.7424 537.521 72.4899V33.4433C537.521 15.0555 547.286 0.0742188 562.244 0.0742188C577.201 0.0742188 586.746 15.0555 586.746 33.4433V72.4899C586.746 79.7424 583.784 89.3026 577.457 92.2329C583.82 94.9435 586.746 104.504 586.746 111.976V152.854C586.746 171.242 576.982 186.223 562.244 186.223ZM566.559 30.6595C566.559 27.6925 564.511 25.2018 562.244 25.2018C559.757 25.2018 557.709 27.6925 557.709 30.6595V77.4348C557.709 80.4018 559.757 82.8925 562.244 82.8925C564.511 82.8925 566.559 80.4018 566.559 77.4348V30.6595ZM566.559 106.518C566.559 103.551 564.511 101.061 562.244 101.061C559.757 101.061 557.709 103.551 557.709 106.518V155.565C557.709 158.532 559.757 161.022 562.244 161.022C564.511 161.022 566.559 158.532 566.559 155.565V106.518Z" fill="#FFDD00"/>
<path d="M615.637 18.7176V118.019H602.361V18.7176H592.816V3.73633H624.487V18.7542H615.637V18.7176Z" fill="#FFDD00"/>
<path d="M650.268 118.019V68.8628H643.283V118.019H630.008V3.73633H643.283V54.4676H650.268V3.73633H663.544V118.019H650.268Z" fill="#FFDD00"/>
<path d="M663.654 127.506H602.361V142.634H663.654V127.506Z" fill="#FFDD00"/>
<path d="M945.445 109.426H939.339V185.339H918.025V3.5293H945.445C956.083 3.5293 969.464 8.99091 969.464 32.1569V81.0182C969.464 103.964 956.083 109.426 945.445 109.426ZM948.625 32.6334C948.625 27.3918 947.273 25.3757 944.787 25.3757H939.339V87.6528H944.787C947.273 87.6528 948.625 85.6001 948.625 80.3951V32.6334Z" fill="#FFDD00"/>
<path d="M1009.9 185.339V107.153H998.784V185.339H977.689V3.5293H998.784V84.2072H1009.9V3.5293H1030.99V185.339H1009.9Z" fill="#FFDD00"/>
<path d="M1040.24 185.339V3.5293H1061.55V185.339H1040.24Z" fill="#FFDD00"/>
<path d="M1070.7 185.339V3.5293H1092.01V163.529H1114.68V185.339H1070.7Z" fill="#FFDD00"/>
<path d="M1155.25 185.339L1153.9 152.386H1141.43L1139.39 185.339H1120.56L1135.33 3.5293H1162.09L1177.04 185.339H1155.29H1155.25ZM1148.71 56.7159L1143.26 129.22H1152.55L1148.71 56.7159Z" fill="#FFDD00"/>
<path d="M1213.68 185.339H1184.43V3.5293H1213.68C1224.32 3.5293 1237.7 8.99091 1237.7 32.1569V156.674C1237.7 179.84 1224.32 185.302 1213.68 185.302V185.339ZM1216.82 32.6334C1216.82 27.3918 1215.25 25.3757 1212.98 25.3757H1205.49V163.785H1212.98C1215.25 163.785 1216.82 161.733 1216.82 156.528V32.6334Z" fill="#FFDD00"/>
<path d="M1246.29 185.339V3.5293H1290.27V25.3391H1267.38V80.7983H1282.81V102.608H1267.38V163.529H1290.27V185.339H1246.29Z" fill="#FFDD00"/>
<path d="M1298.09 185.339V3.5293H1319.41V163.529H1342.07V185.339H1298.09Z" fill="#FFDD00"/>
<path d="M1376.88 109.426H1370.77V185.339H1349.46V3.5293H1376.88C1387.52 3.5293 1400.9 8.99091 1400.9 32.1569V81.0182C1400.9 103.964 1387.52 109.426 1376.88 109.426ZM1380.06 32.6334C1380.06 27.3918 1378.71 25.3757 1376.22 25.3757H1370.77V87.6528H1376.22C1378.71 87.6528 1380.06 85.6001 1380.06 80.3951V32.6334Z" fill="#FFDD00"/>
<path d="M1441.33 185.339V107.153H1430.22V185.339H1409.12V3.5293H1430.22V84.2072H1441.33V3.5293H1462.43V185.339H1441.33Z" fill="#FFDD00"/>
<path d="M1471.68 185.339V3.5293H1492.99V185.339H1471.68Z" fill="#FFDD00"/>
<path d="M1535.21 185.339L1533.86 152.386H1521.39L1519.35 185.339H1500.52L1515.29 3.5293H1542.05L1557 185.339H1535.25H1535.21ZM1528.67 56.7159L1523.22 129.22H1532.51L1528.67 56.7159Z" fill="#FFDD00"/>
<path d="M790.182 46.8555C796.671 46.8555 803.248 48.3512 808.896 51.6301C814.375 54.8059 818.772 59.6763 821.01 65.6668C822.898 70.7067 823.717 76.2255 823.717 81.597C824.163 87.5285 824.822 93.4969 826.277 99.3031C829.057 110.459 834.193 121.054 841.399 129.992C843.542 132.645 845.81 135.201 848.224 137.611C850.924 139.844 853.053 142.842 853.016 146.49C852.811 155.214 853.638 157.402 844.303 158.205C836.527 158.868 828.67 159.65 820.886 160.003C811.617 160.423 784.469 160.865 769.801 159.848C766.063 159.591 764.812 157.056 767.014 154.455C771.608 149.017 783.964 138.09 788.075 133.61C788.734 132.895 788.222 131.731 787.249 131.746C785.156 131.775 779.948 131.9 778.616 131.503C775.77 130.788 782.581 124.053 783.276 122.499C787.417 116.958 791.419 111.321 795.53 105.758C797.234 103.356 804.93 95.0516 801.551 94.7347C798.69 94.3663 788.558 96.1347 791.77 91.5C796.174 84.6844 800.336 78.436 804.733 71.613C815.86 55.0417 804.162 67.612 799.568 72.6593C790.811 81.6044 781.806 90.2843 772.99 99.1557C770.291 101.875 778.104 101.351 780.057 101.381C782.157 101.381 783.101 101.381 785.025 101.381C787.914 101.381 782.684 107.482 781.352 109.28C775.909 115.874 770.562 122.557 765.075 129.115C758.352 136.904 759.588 135.666 768.733 136.145C774.541 136.417 767.16 143.579 765.558 146.084C764.182 148.177 757.35 157.329 754.782 158.537C752.36 159.657 749.712 159.156 747.166 158.979C742.558 158.647 739.58 158.463 734.664 158.22C732.447 158.11 729.067 158.132 727.765 155.929C727.473 155.435 727.348 154.868 727.341 154.3C726.251 139.799 729.631 141.067 738 131.171C743.735 124.274 748.286 116.368 751.417 107.946C754.065 100.666 755.652 93.0032 756.347 85.2959C757.05 77.4118 756.969 69.0341 761.044 61.99C764.234 56.4637 769.377 52.3449 775.178 49.8691C779.904 47.8502 785.061 46.8776 790.19 46.8776L790.182 46.8555Z" fill="#FFDD00"/>
<path d="M714.028 41.1667C714.028 20.867 713.355 18.8407 725.558 18.8407C734.556 18.8407 754.937 18.826 763.935 18.8481C765.128 18.8629 766.152 19.2681 766.993 20.1376C768.954 22.3923 770.695 24.8238 772.553 27.1596C774.74 29.989 776.913 32.8332 779.144 35.6331C780.52 37.2247 781.259 39.8846 778.866 41.1741C770.71 43.5319 762.889 47.4371 757.132 53.877C755.296 55.837 753.73 57.9886 752.362 60.2948C751.287 62.1664 750.292 64.5242 747.797 64.5242C720.232 64.5316 714.028 67.1326 714.028 41.1667Z" fill="#FFDD00"/>
<path d="M790.224 3.38249C795.689 3.38249 807.204 2.6825 809.384 8.17926C811.015 12.2908 806.867 15.3413 804.819 18.4949C802.331 21.7148 799.873 24.9569 797.335 28.1326C791.621 36.6357 786.83 34.1599 781.877 26.6958C779.594 23.6969 777.246 20.7422 774.934 17.7654C772.447 14.5234 768.014 10.2055 771.628 6.17508C775.973 2.62356 784.554 3.38249 790.224 3.38249Z" fill="#FFDD00"/>
<path d="M790.053 168.396C790.053 168.396 790.038 168.396 790.031 168.396C790.031 168.396 790.016 168.396 790.009 168.396C781.544 168.587 777.426 166.465 777.023 170.768C777.177 174.276 778.918 176.818 781.471 179.021C783.095 180.701 787.199 181.231 787.251 184.083C787.119 186.352 788.546 187.516 789.979 187.538C789.979 187.538 790.016 187.538 790.031 187.538C790.045 187.538 790.067 187.538 790.082 187.538C791.523 187.509 792.942 186.345 792.811 184.075C792.862 181.224 796.966 180.701 798.59 179.013C801.143 176.81 802.884 174.261 803.038 170.761C802.628 166.458 798.517 168.58 790.053 168.388V168.396Z" fill="#FFDD00"/>
<path d="M866.32 41.1663C866.32 20.8592 867 18.8329 854.798 18.8329C845.799 18.8329 825.418 18.8182 816.42 18.8403C815.227 18.855 814.203 19.2603 813.362 20.1298C811.401 22.3845 809.66 24.816 807.802 27.1518C805.615 29.9812 803.442 32.8254 801.211 35.6253C799.835 37.2169 799.096 39.8768 801.489 41.1663C809.646 43.5241 817.466 47.4293 823.223 53.8692C825.06 55.8292 826.625 57.9808 827.993 60.287C829.069 62.1586 830.064 64.5164 832.558 64.5164C860.131 64.5164 866.327 67.1248 866.327 41.1589L866.32 41.1663Z" fill="#FFDD00"/>
</svg>
