<svg width="1556" height="360" viewBox="0 0 1556 360" fill="none" xmlns="http://www.w3.org/2000/svg">
<path d="M1080.81 142.668C1080.81 154.509 1076.52 159.154 1068.44 159.154H1050.35V70.5589H1068.44C1076.52 70.5589 1080.81 75.2042 1080.81 87.0452V142.668ZM1099.82 351.282H1160.7V349.734C1155.96 333.247 1151.67 315.729 1151.67 294.111V231.263C1151.67 213.228 1139.78 195.224 1120.77 185.417C1139.81 175.64 1150.27 157.089 1150.27 140.087V80.3353C1150.27 33.9732 1115.55 8.22656 1079.85 8.22656H977.109V351.252H1050.38V215.778H1067.04C1077.5 215.778 1082.74 226.587 1082.74 235.362V298.18C1082.74 321.376 1088.46 351.221 1099.88 351.221M1347.65 274.012V8.25692H1277.24V274.012C1277.24 284.821 1269.61 291.014 1260.11 291.014C1251.55 291.014 1243.93 284.821 1243.93 274.012V8.25692H1170.2V274.012C1170.2 321.406 1209.21 358.994 1260.11 358.994C1311 358.994 1347.62 321.406 1347.62 274.012M1556 351.282V8.25692H1491.79V184.931L1474.65 135.988L1432.79 8.25692H1368.09V351.282H1432.79V176.673L1450.87 225.099L1495.6 351.282H1556Z" fill="#FFDD00"/>
<path d="M174.587 294.082V231.264C174.587 213.259 162.67 195.224 143.658 185.448C162.67 175.672 173.157 157.121 173.157 140.148V80.3969C173.157 34.0652 138.442 8.25781 102.745 8.25781H0V351.313H73.2449V215.84H89.9016C100.361 215.84 105.605 226.649 105.605 235.393V298.241C105.605 321.407 111.325 351.283 122.71 351.283H183.617V349.734C178.85 333.248 174.587 315.729 174.587 294.082ZM103.698 142.699C103.698 154.54 99.4077 159.185 91.3317 159.185H73.2449V70.6205H91.3317C99.4077 70.6205 103.698 75.2658 103.698 87.0765V142.729V142.699Z" fill="#F9F9F4"/>
<path d="M569.894 269.398V224.068H505.678V270.43C505.678 282.271 498.556 291.046 485.208 291.046C471.86 291.046 465.242 282.302 465.242 270.43V89.1107C465.242 77.2697 471.888 68.4952 485.208 68.4952C498.528 68.4952 505.678 77.2393 505.678 89.1107V135.473H569.894V90.143C569.894 37.1013 537.534 0.515625 485.208 0.515625C432.882 0.515625 390.539 38.6194 390.539 94.758V264.722C390.539 321.377 430.975 358.965 485.208 358.965C539.44 358.965 569.894 322.925 569.894 269.337" fill="#F9F9F4"/>
<path d="M726.405 150.927L770.403 13.48L774.609 8.25781H701.196L659.33 156.604V8.25781H586.057V351.283H659.33V265.269L674.556 220.971L703.103 351.283H777.301L726.405 150.927Z" fill="#F9F9F4"/>
<path d="M905.235 209.13L972.788 8.25781H900.468L873.857 129.279L843.403 8.25781H772.037L770.383 13.48L832.467 209.13V351.283H905.235V209.13Z" fill="#F9F9F4"/>
<path d="M924.741 334.886H920.93V331.729H931.915V334.886H928.104V348.124H924.741V334.886Z" fill="#F9F9F4"/>
<path d="M945.794 334.37L942.571 348.124H940.301L937.079 334.37L937.191 348.124H934.248V331.729H938.76L941.422 342.325L944.085 331.729H948.597V348.124H945.682L945.794 334.37Z" fill="#F9F9F4"/>
<path d="M282.968 359.056C230.95 359.056 190.879 322.895 190.879 269.155V89.3845C190.879 36.1606 230.95 0 282.968 0C334.985 0 374.58 36.1606 374.58 89.3845V269.155C374.58 322.895 334.508 359.056 282.968 359.056ZM299.681 84.7088C299.681 73.8697 292.053 67.676 282.968 67.676C273.882 67.676 265.778 73.8697 265.778 84.7088V273.801C265.778 284.64 273.882 290.864 282.968 290.864C292.053 290.864 299.681 284.67 299.681 273.801V84.7088Z" fill="#F9F9F4"/>
</svg>
