<svg width="258" height="89" viewBox="0 0 258 89" fill="none" xmlns="http://www.w3.org/2000/svg">
<path d="M94.0768 22.7353C94.3567 23.2896 94.5625 23.8799 94.6941 24.5062C95.0806 26.346 94.6926 28.0012 93.5301 29.4716C92.3594 30.9029 90.5409 31.8776 88.0748 32.3957C86.3915 32.7494 84.2933 32.7815 81.7801 32.492C80.5458 33.0374 79.5782 33.9764 78.8772 35.309C78.168 36.6025 77.5481 38.6129 77.0176 41.3402L74.4222 55.2511C73.7884 58.6541 73.0413 61.713 72.1812 64.4279C71.3127 67.1036 70.5631 69.08 69.9322 70.357C69.3012 71.634 68.5343 73.0417 67.6313 74.5803C67.2014 73.1174 66.0206 71.4853 64.089 69.684C62.1573 67.8827 60.5972 66.7799 59.4087 66.3756C61.8502 65.74 63.7843 64.1484 65.2109 61.6006C66.6685 59.0055 68.0894 55.4575 69.4736 50.9568C69.5417 50.6972 69.7769 49.8712 70.1792 48.4788C70.6124 47.0389 70.894 46.1419 71.0239 45.7876C71.1456 45.3942 71.4045 44.5836 71.8005 43.356C72.1966 42.1283 72.4905 41.29 72.6823 40.8409C72.905 40.3445 73.204 39.6277 73.5793 38.6906C73.9856 37.706 74.3474 36.9964 74.6648 36.5619C75.0132 36.08 75.4079 35.527 75.8491 34.903C76.3211 34.2316 76.7828 33.7054 77.2341 33.3245C77.7163 32.8962 78.2305 32.5225 78.7766 32.2034C75.3364 31.7817 72.0113 31.908 68.8014 32.5824C64.5345 33.4789 61.5087 34.932 59.7238 36.942C57.9698 38.9045 57.319 40.9623 57.7713 43.1153C58.018 44.2897 58.5327 45.1829 59.3153 45.7951C60.1288 46.3599 61.1227 46.5189 62.2971 46.2722C63.4323 46.0337 64.2823 45.5077 64.8471 44.6942C65.4511 43.8725 65.642 42.9331 65.42 41.8762C66.2253 42.4019 66.7513 43.2519 66.998 44.4263C67.3352 46.0312 67.0173 47.6308 66.0442 49.2249C65.1103 50.8108 63.5082 51.8422 61.2378 52.3192C59.0456 52.7798 57.1916 52.5153 55.6758 51.5258C54.1517 50.4972 53.1718 48.9455 52.7359 46.8708C52.1602 44.1307 52.7536 41.4105 54.5161 38.7105C56.3178 36.0022 58.7785 33.7072 61.8983 31.8256C65.0572 29.9357 68.4178 28.6166 71.98 27.8682C74.407 27.3583 77.4252 27.1329 81.0344 27.1921C84.6746 27.2039 87.0819 27.0864 88.2563 26.8397C91.153 26.2311 93.0932 24.863 94.0768 22.7353ZM105.562 50.6707L107.545 51.3576C106.582 54.7481 105.234 57.7697 103.503 60.4224C101.81 63.0669 99.7899 64.6359 97.4411 65.1293C94.8575 65.6721 93.282 64.593 92.7145 61.892C92.5747 61.2265 92.5482 60.5168 92.6351 59.7628C91.2591 64.3027 89.1032 66.8811 86.1673 67.4979C82.9182 68.1805 80.9277 66.7798 80.1957 63.2959C79.7023 60.9472 79.8477 58.1372 80.6319 54.8661C81.4552 51.5868 82.7759 48.6321 84.594 46.0021C86.4121 43.3721 88.3781 41.835 90.4919 41.3909C92.919 40.881 94.445 42.1136 95.07 45.0887C95.1523 45.4801 95.1944 45.7778 95.1964 45.9818L95.524 45.7903C95.5283 45.4215 95.5368 44.684 95.5496 43.5778C95.5934 42.4241 95.6133 41.6434 95.6093 41.2354C98.5061 40.6269 100.316 40.0013 101.039 39.3589L98.0253 57.4042C97.8684 58.2137 97.8516 58.9121 97.975 59.4993C98.1559 60.3605 98.677 60.7006 99.5382 60.5197C100.791 60.2565 101.945 59.1352 103.001 57.1559C104.048 55.1374 104.902 52.9757 105.562 50.6707ZM87.8533 62.9746C88.5188 62.8348 89.138 62.3777 89.711 61.6033C90.315 60.7816 90.8645 59.6034 91.3596 58.0689C91.8938 56.5261 92.2857 55.2788 92.5354 54.3272C92.816 53.3281 93.1905 51.9006 93.6589 50.0447C93.7276 48.2318 93.6674 46.8752 93.4782 45.9749C93.1904 44.6048 92.6159 44.0102 91.7547 44.1911C90.6977 44.4132 89.6466 45.6354 88.6012 47.8578C87.5476 50.0411 86.7668 52.4532 86.2589 55.094C85.782 57.6875 85.6998 59.728 86.0123 61.2155C86.3001 62.5856 86.9138 63.172 87.8533 62.9746ZM128.238 45.9067L130.234 46.6523C129.006 50.3435 127.573 53.4444 125.934 55.9549C124.326 58.4182 122.25 59.9171 119.706 60.4516C118.297 60.7477 117.029 60.6462 115.902 60.1472C114.775 59.6482 113.877 58.8763 113.208 57.8316C112.57 56.7395 112.059 55.7638 111.674 54.9046C111.328 54.0371 111.056 53.1336 110.859 52.1942C110.663 52.2353 110.522 52.2445 110.436 52.2218L108.732 62.2054L103.154 63.3773L109.318 26.7677C109.459 25.8799 109.476 25.1815 109.369 24.6726C109.171 23.7331 108.62 23.154 107.716 22.9352C108.765 22.674 110.274 22.173 112.244 21.4322C114.245 20.644 115.466 20.0399 115.91 19.6198L111.657 43.4432C113.525 38.7181 116.025 36.0265 119.157 35.3686C120.253 35.1383 121.239 35.2582 122.114 35.7283C122.989 36.1983 123.563 37.0793 123.834 38.3711C124.319 40.6807 123.702 42.997 121.983 45.3201C120.295 47.5958 118.077 49.3903 115.328 50.7035C115.931 52.2117 116.76 53.5295 117.814 54.6568C118.907 55.7759 120.12 56.1956 121.451 55.916C124.191 55.3403 126.453 52.0039 128.238 45.9067ZM117.076 39.1779C115.079 39.5973 113.003 43.1399 110.848 49.8055L110.792 50.1237C113.524 49.5089 115.566 48.1398 116.918 46.0164C118.271 43.8929 118.774 42.0092 118.429 40.3651C118.231 39.4256 117.78 39.0299 117.076 39.1779ZM147.736 41.3198L149.617 42.396C148.664 46.0296 146.989 49.2427 144.592 52.0352C142.234 54.8195 139.508 56.5365 136.416 57.1862C133.95 57.7043 131.864 57.4068 130.159 56.2936C128.484 55.1331 127.405 53.398 126.919 51.0885C126.146 47.4088 126.822 43.4248 128.945 39.1366C131.1 34.8009 134.017 32.2466 137.697 31.4735C140.907 30.7991 142.824 31.9495 143.449 34.9245C143.992 37.5081 143.349 39.9934 141.521 42.3803C139.724 44.7198 137.513 46.1651 134.891 46.7161C133.951 46.9135 133.1 46.9492 132.338 46.8232C132.365 47.9212 132.452 48.8226 132.6 49.5272C133.192 52.3457 134.819 53.4753 137.481 52.916C140.064 52.3732 142.297 50.8414 144.179 48.3206C146.061 45.7999 147.247 43.4662 147.736 41.3198ZM137.476 34.2175C136.458 34.4313 135.446 35.6453 134.44 37.8595C133.426 40.0346 132.774 42.3787 132.484 44.8919C134.926 44.2563 136.718 42.9602 137.86 41.0036C138.994 39.0079 139.396 37.2271 139.067 35.6612C138.829 34.526 138.298 34.0448 137.476 34.2175ZM182.232 32.9688L184.299 33.7607C183.781 36.1585 182.75 38.2552 181.206 40.051C179.654 41.8076 177.665 42.9409 175.238 43.4508L174.533 43.5988C172.391 47.6048 169.656 49.9574 166.329 50.6564C164.293 51.0841 162.49 50.7681 160.918 49.7086C159.339 48.6099 158.319 46.9645 157.858 44.7723C157.373 42.4628 157.524 39.8764 158.313 37.0131C159.132 34.1026 160.522 31.4806 162.484 29.1473C164.447 26.814 166.641 25.3925 169.068 24.8826C171.221 24.4302 172.951 24.7822 174.256 25.9384C175.601 27.0865 176.483 28.6587 176.902 30.6551C177.511 33.5519 177.189 36.7871 175.937 40.3609C179.207 39.3878 181.305 36.9238 182.232 32.9688ZM169.62 27.2189C169.386 27.2683 169.081 27.3732 168.706 27.5338C167.625 30.1723 167.356 32.7834 167.899 35.367C168.401 37.7548 169.452 39.3529 171.052 40.1611C172.409 36.1156 172.771 32.5858 172.138 29.5716C171.751 27.7318 170.912 26.9475 169.62 27.2189ZM166.08 46.8462C167.45 46.5583 168.728 45.2476 169.914 42.914C167.872 41.9531 166.527 39.9264 165.877 36.834C165.409 34.6027 165.477 32.4015 166.084 30.2304C164.934 32.1479 164.118 34.5877 163.637 37.5499C163.186 40.4648 163.142 42.7834 163.504 44.5058C163.891 46.3457 164.749 47.1258 166.08 46.8462ZM205.559 29.6619L207.543 30.3488C206.579 33.7393 205.232 36.7609 203.5 39.4136C201.808 42.0581 199.768 43.6312 197.38 44.1328C195.971 44.4289 194.827 44.2399 193.95 43.5659C193.073 42.8919 192.498 41.909 192.227 40.6172C191.849 38.8165 192.146 35.9541 193.12 32.03C194.125 28.0585 194.525 25.5835 194.319 24.6049C194.106 23.5871 193.548 23.1728 192.648 23.3619C190.808 23.7485 189.119 26.3105 187.58 31.0481L184.997 46.1827L179.418 47.3546L182.656 28.0363C182.796 27.1484 182.805 26.4109 182.681 25.8237C182.484 24.8843 181.972 24.2969 181.146 24.0617C182.156 23.8087 183.473 23.3684 185.099 22.7408C186.756 22.0657 187.806 21.5182 188.249 21.0981L187.372 26.555L187.724 26.4809C189.372 22.4562 191.683 20.1313 194.658 19.5062C195.95 19.2348 197.113 19.4197 198.147 20.0608C199.212 20.6546 199.876 21.5778 200.139 22.8304C200.443 24.2788 200.085 26.9496 199.063 30.8428C198.042 34.7359 197.642 37.211 197.864 38.2679C198.078 39.2857 198.635 39.7 199.536 39.5109C200.788 39.2477 201.942 38.1264 202.998 36.1471C204.045 34.1286 204.899 31.9669 205.559 29.6619Z" fill="#FFDD00"/>
<path d="M244.421 6.18291L246.738 13.5123L254.526 12.2804C255.511 12.1246 256.089 13.35 255.349 14.0102L248.758 19.904L251.238 27.7443C251.518 28.6206 250.563 29.3724 249.773 28.9029L243.125 24.9431L236.725 30.6662C235.969 31.3418 234.801 30.5869 235.108 29.618L237.621 21.6654L231.087 17.7709C230.282 17.2909 230.517 16.0712 231.44 15.9253L239.852 14.5948L242.517 6.18373C242.811 5.25515 244.127 5.25153 244.421 6.18291Z" fill="#FFDD00"/>
<path d="M15.2886 53.795L17.6047 61.1243L25.3932 59.8925C26.3784 59.7367 26.9557 60.9621 26.2164 61.6223L19.6255 67.516L22.1055 75.3564C22.3847 76.2326 21.4298 76.9845 20.6397 76.515L13.9924 72.5552L7.59179 78.2782C6.83576 78.9539 5.66812 78.199 5.97508 77.23L8.48844 69.2775L1.95374 65.383C1.14917 64.903 1.38451 63.6833 2.3074 63.5373L10.7194 62.2069L13.384 53.7958C13.6782 52.8672 14.9943 52.8636 15.2886 53.795Z" fill="#FFDD00"/>
</svg>
