<svg width="376" height="123" viewBox="0 0 376 123" fill="none" xmlns="http://www.w3.org/2000/svg">
<path d="M111.664 76.8979C110.45 77.1528 109.227 76.388 108.98 75.2137C108.701 73.8827 109.426 72.6676 110.718 72.3962C111.971 72.133 113.077 72.9225 113.348 74.2143C113.603 75.4278 112.916 76.6347 111.664 76.8979ZM165.274 45.4841C165.482 45.8901 165.604 46.2733 165.686 46.6647C166.188 49.0526 164.64 51.2171 161.273 51.9244C159.825 52.2287 158.459 52.1478 157.077 51.9886C155.389 52.711 154.581 54.3114 153.902 57.8874L152.171 67.1613C150.807 74.4782 149.065 77.6645 147.644 80.0474C147.035 77.9273 143.524 75.0273 142.162 74.5777C145.77 73.6562 147.397 69.1453 148.872 64.2984C150.407 59.1529 151.781 53.6324 155.074 51.7962C153.229 51.5709 151.125 51.4814 148.424 52.0489C142.239 53.3483 140.544 56.5655 141.071 59.0708C141.4 60.6366 142.522 61.5044 144.088 61.1754C145.575 60.8629 146.474 59.6931 146.17 58.2447C146.691 58.5849 147.066 59.201 147.222 59.9448C147.617 61.8237 146.67 64.5159 143.382 65.2067C140.446 65.8236 138.29 64.3147 137.714 61.5745C136.513 55.8593 143.497 50.3864 150.543 48.906C154.967 47.9767 158.615 48.8043 161.394 48.2204C162.608 47.9654 164.429 47.2967 165.274 45.4841ZM172.931 64.1077L174.254 64.5656C173.168 68.3496 170.962 73.0231 167.517 73.7468C165.521 74.1662 164.646 72.9195 164.366 71.5886C164.276 71.158 164.255 70.6718 164.313 70.1691C163.447 73.0488 162.076 74.89 160.001 75.3258C157.692 75.8111 156.448 74.5601 156.02 72.5245C155.025 67.7879 158.422 58.8588 162.885 57.9212C164.685 57.5429 165.583 58.7031 165.937 60.3864C165.978 60.5821 166.019 60.7778 166.021 60.9818L166.239 60.8541C166.223 59.9992 166.335 58.586 166.296 57.8176C166.805 57.7106 169.364 57.0504 169.916 56.5665L167.907 68.5967C167.81 69.1076 167.791 69.602 167.873 69.9934C167.98 70.5023 168.289 70.8053 168.915 70.6737C170.833 70.2707 172.294 66.3262 172.931 64.1077ZM161.125 72.3103C163.004 71.9156 164.158 67.0954 164.996 63.6904C165.033 62.7015 165.032 61.7209 164.875 60.9772C164.703 60.1551 164.353 59.6564 163.726 59.788C161.495 60.2568 159.265 68.1234 159.898 71.1376C160.079 71.9988 160.46 72.4501 161.125 72.3103ZM188.048 60.9317L189.379 61.4288C188.084 65.3795 186.118 69.8388 182.36 70.6283C178.329 71.4754 176.905 67.0333 176.463 65.1234C176.345 65.148 176.267 65.1645 176.18 65.1418L175.045 71.7975L171.326 72.5788L175.435 48.1724C175.539 47.4967 175.543 47.128 175.469 46.7757C175.337 46.1493 174.973 45.7763 174.367 45.6174C175.612 45.3151 179.176 43.994 179.83 43.4071L176.994 59.2894C178.38 55.7692 180.311 54.26 181.995 53.9063C183.286 53.6349 184.718 54.029 185.113 55.908C185.787 59.1179 182.854 62.4726 179.442 64.1296C180.061 65.7161 181.527 68.024 183.524 67.6046C185.99 67.0865 187.38 63.1976 188.048 60.9317ZM180.607 56.4459C179.472 56.6844 177.963 58.8407 176.455 63.5309L176.418 63.7431C180.433 62.8177 181.887 59.038 181.509 57.2373C181.353 56.4936 180.959 56.3718 180.607 56.4459ZM201.047 57.8738L202.301 58.5912C201.067 63.2239 197.767 67.5549 193.501 68.4514C190.173 69.1504 187.803 67.4004 187.17 64.3862C186.215 59.8454 189.148 52.4034 194.354 51.3096C196.429 50.8737 197.778 51.653 198.189 53.6103C198.93 57.1334 195.85 60.764 192.484 61.4713C191.897 61.5947 191.332 61.6315 190.782 61.5427C190.796 62.1937 190.841 62.7973 190.956 63.3454C191.335 65.1461 192.292 66.0076 194.21 65.6046C198.086 64.7904 200.558 60.0202 201.047 57.8738ZM194.207 53.1389C192.837 53.4268 191.239 56.9097 190.879 60.2552C194.487 59.3338 195.63 55.8238 195.268 54.1014C195.128 53.4359 194.755 53.0238 194.207 53.1389ZM224.045 52.3064L225.423 52.8344C224.785 55.8295 222.787 58.5789 219.382 59.2944L218.912 59.3931C217.648 61.7432 215.752 63.613 213.443 64.0982C210.702 64.6739 208.404 63.0722 207.795 60.1755C206.833 55.5955 210.141 47.993 215.269 46.9156C218.361 46.2659 219.998 48.4153 220.492 50.764C220.886 52.643 220.642 54.9832 219.848 57.2345C222.312 56.5125 223.525 54.5002 224.045 52.3064ZM215.637 48.4732C215.441 48.5143 215.214 48.6028 215.027 48.6831C214.621 49.6677 214.004 51.5957 214.489 53.9052C214.81 55.4319 215.495 56.555 216.591 57.1013C217.369 54.7717 217.735 52.0381 217.315 50.0417C217.052 48.789 216.576 48.2758 215.637 48.4732ZM213.277 61.558C214.216 61.3606 215.109 60.3557 215.832 58.9366C214.516 58.3139 213.577 56.9579 213.141 54.8832C212.771 53.1217 212.953 51.6529 213.279 50.4808C211.682 53.1872 211.107 57.8448 211.559 59.9978C211.822 61.2505 212.455 61.7307 213.277 61.558ZM239.596 50.1019L240.918 50.5598C239.833 54.3437 237.627 59.0172 234.143 59.7491C232.186 60.1604 231.053 59.0495 230.708 57.4054C230.009 54.078 232.572 48.9618 232.103 46.7305C232.053 46.4956 231.85 45.7209 230.989 45.9019C229.932 46.1239 228.699 47.65 227.61 51.026L225.888 61.1157L222.169 61.897L224.327 49.0181C224.43 48.3424 224.418 47.8954 224.344 47.5431C224.213 46.9168 223.926 46.5273 223.321 46.3684C224.565 46.0661 227.402 44.9795 228.056 44.3927L227.471 48.0306L227.706 47.9812C228.894 45.0749 230.763 43.6604 232.329 43.3314C234.051 42.9696 235.629 43.8643 235.983 45.5475C236.558 48.2877 233.997 53.6079 234.466 55.8392C234.606 56.5047 234.954 56.7994 235.58 56.6678C237.498 56.2648 238.959 52.3203 239.596 50.1019ZM265.646 44.5472C264.432 44.8022 263.209 44.0374 262.962 42.863C262.683 41.5321 263.408 40.3169 264.7 40.0455C265.953 39.7823 267.059 40.5718 267.33 41.8636C267.585 43.0771 266.899 44.2841 265.646 44.5472Z" fill="#FFDD00"/>
<g clip-path="url(#clip0_8513_2102)">
<path d="M266.274 34.6192L267.831 39.5452L273.065 38.7173C273.727 38.6126 274.116 39.4362 273.619 39.8799L269.189 43.8411L270.856 49.1106C271.043 49.6995 270.402 50.2049 269.87 49.8893L265.403 47.2279L261.101 51.0744C260.593 51.5285 259.808 51.0211 260.014 50.3699L261.704 45.025L257.312 42.4075C256.771 42.0849 256.929 41.2651 257.549 41.167L263.203 40.2728L264.994 34.6197C265.192 33.9956 266.076 33.9932 266.274 34.6192Z" fill="#FFDD00"/>
</g>
<g clip-path="url(#clip1_8513_2102)">
<path d="M112.274 66.6192L113.831 71.5452L119.065 70.7173C119.727 70.6126 120.116 71.4362 119.619 71.8799L115.189 75.8411L116.856 81.1106C117.043 81.6995 116.402 82.2049 115.87 81.8893L111.403 79.2279L107.101 83.0744C106.593 83.5285 105.808 83.0211 106.014 82.3699L107.704 77.025L103.312 74.4075C102.771 74.0849 102.929 73.2651 103.549 73.167L109.203 72.2728L110.994 66.6197C111.192 65.9956 112.076 65.9932 112.274 66.6192Z" fill="#FFDD00"/>
</g>
<defs>
<clipPath id="clip0_8513_2102">
<rect width="17.049" height="16.3743" fill="white" transform="translate(256 35.6641) rotate(-8.98738)"/>
</clipPath>
<clipPath id="clip1_8513_2102">
<rect width="17.049" height="16.3743" fill="white" transform="translate(102 67.6641) rotate(-8.98738)"/>
</clipPath>
</defs>
</svg>
