<svg width="134" height="57" viewBox="0 0 134 57" fill="none" xmlns="http://www.w3.org/2000/svg">
<path d="M6.33724 45.605C5.12373 45.8599 3.90035 45.0951 3.65362 43.9208C3.374 42.5898 4.09966 41.3747 5.39146 41.1033C6.64411 40.8401 7.75006 41.6296 8.02146 42.9214C8.27641 44.1349 7.58989 45.3418 6.33724 45.605ZM44.2744 17.4841C44.4823 17.8901 44.6037 18.2733 44.6859 18.6647C45.1876 21.0526 43.6396 23.2171 40.2731 23.9244C38.8247 24.2287 37.4589 24.1478 36.0766 23.9886C34.3891 24.711 33.5809 26.3114 32.9016 29.8874L31.1714 39.1613C29.8066 46.4782 28.0645 49.6645 26.6441 52.0474C26.0352 49.9273 22.5239 47.0273 21.1624 46.5777C24.77 45.6562 26.3973 41.1453 27.8723 36.2984C29.4072 31.1529 30.7815 25.6324 34.0743 23.7962C32.2285 23.5709 30.1252 23.4814 27.4242 24.0489C21.2392 25.3483 19.5444 28.5655 20.0708 31.0708C20.3998 32.6366 21.5222 33.5044 23.088 33.1754C24.5755 32.8629 25.4742 31.6931 25.1699 30.2447C25.691 30.5849 26.0656 31.201 26.2219 31.9448C26.6167 33.8237 25.67 36.5159 22.3817 37.2067C19.4458 37.8236 17.2895 36.3147 16.7138 33.5745C15.5131 27.8593 22.4971 22.3864 29.5432 20.906C33.9667 19.9767 37.6148 20.8043 40.3941 20.2204C41.6076 19.9654 43.429 19.2967 44.2744 17.4841ZM51.9312 36.1077L53.2536 36.5656C52.1684 40.3496 49.9621 45.0231 46.5173 45.7468C44.5209 46.1662 43.6459 44.9195 43.3663 43.5886C43.2758 43.158 43.2554 42.6718 43.3133 42.1691C42.4469 45.0488 41.0761 46.89 39.0014 47.3258C36.6918 47.8111 35.4481 46.5601 35.0204 44.5245C34.0253 39.7879 37.422 30.8588 41.8845 29.9212C43.6852 29.5429 44.583 30.7031 44.9366 32.3864C44.9777 32.5821 45.0188 32.7778 45.0208 32.9818L45.2392 32.8541C45.2231 31.9992 45.3349 30.586 45.2961 29.8176C45.805 29.7106 48.3639 29.0504 48.9162 28.5665L46.9068 40.5967C46.8097 41.1076 46.791 41.602 46.8732 41.9934C46.9802 42.5023 47.289 42.8053 47.9154 42.6737C49.8335 42.2707 51.2937 38.3262 51.9312 36.1077ZM40.1254 44.3103C42.0044 43.9156 43.158 39.0954 43.9958 35.6904C44.0333 34.7015 44.0317 33.7209 43.8754 32.9772C43.7027 32.1551 43.3527 31.6564 42.7264 31.788C40.4951 32.2568 38.2648 40.1234 38.8981 43.1376C39.079 43.9988 39.46 44.4501 40.1254 44.3103ZM67.0483 32.9317L68.379 33.4288C67.0836 37.3795 65.1184 41.8388 61.3605 42.6283C57.3285 43.4754 55.9048 39.0333 55.4626 37.1234C55.3452 37.148 55.2669 37.1645 55.1804 37.1418L54.0446 43.7975L50.3258 44.5788L54.4355 20.1724C54.5388 19.4967 54.543 19.128 54.469 18.7757C54.3374 18.1493 53.9729 17.7763 53.3673 17.6174C54.6118 17.3151 58.1763 15.994 58.8296 15.4071L55.9945 31.2894C57.3803 27.7692 59.3113 26.26 60.9945 25.9063C62.2863 25.6349 63.7179 26.029 64.1127 27.908C64.7871 31.1179 61.8542 34.4726 58.4419 36.1296C59.0614 37.7161 60.5272 40.024 62.5236 39.6046C64.9898 39.0865 66.3799 35.1976 67.0483 32.9317ZM59.607 28.4459C58.4718 28.6844 56.9629 30.8407 55.455 35.5309L55.4179 35.7431C59.4334 34.8177 60.8873 31.038 60.509 29.2373C60.3528 28.4936 59.9593 28.3718 59.607 28.4459ZM80.047 29.8738L81.3013 30.5912C80.0675 35.2239 76.7674 39.5549 72.5006 40.4514C69.1732 41.1504 66.8028 39.4004 66.1695 36.3862C65.2155 31.8454 68.1481 24.4034 73.3544 23.3096C75.4291 22.8737 76.7781 23.653 77.1894 25.6103C77.9295 29.1334 74.8502 32.764 71.4837 33.4713C70.8965 33.5947 70.3321 33.6315 69.782 33.5427C69.7962 34.1937 69.8413 34.7973 69.9564 35.3454C70.3347 37.1461 71.2923 38.0076 73.2104 37.6046C77.0858 36.7904 79.5579 32.0202 80.047 29.8738ZM73.2074 25.1389C71.8373 25.4268 70.2393 28.9097 69.8794 32.2552C73.487 31.3338 74.6298 27.8238 74.2679 26.1014C74.1281 25.4359 73.7554 25.0238 73.2074 25.1389ZM103.045 24.3064L104.423 24.8344C103.785 27.8295 101.787 30.5789 98.3818 31.2944L97.912 31.3931C96.6482 33.7432 94.7521 35.613 92.4425 36.0982C89.7024 36.6739 87.404 35.0722 86.7954 32.1755C85.8331 27.5955 89.1407 19.993 94.2687 18.9156C97.3612 18.2659 98.9981 20.4153 99.4916 22.764C99.8863 24.643 99.6423 26.9832 98.8482 29.2345C101.312 28.5125 102.525 26.5002 103.045 24.3064ZM94.6369 20.4732C94.4411 20.5143 94.2145 20.6028 94.027 20.6831C93.6207 21.6677 93.004 23.5957 93.4892 25.9052C93.8099 27.4319 94.4955 28.555 95.5912 29.1013C96.3689 26.7717 96.7346 24.0381 96.3152 22.0417C96.052 20.789 95.5763 20.2758 94.6369 20.4732ZM92.2767 33.558C93.2162 33.3606 94.1087 32.3557 94.8323 30.9366C93.5162 30.3139 92.5774 28.9579 92.1415 26.8832C91.7714 25.1217 91.9533 23.6529 92.2793 22.4808C90.6816 25.1872 90.1069 29.8448 90.5592 31.9978C90.8224 33.2505 91.4547 33.7307 92.2767 33.558ZM118.596 22.1019L119.918 22.5598C118.833 26.3437 116.627 31.0172 113.143 31.7491C111.186 32.1604 110.053 31.0495 109.708 29.4054C109.009 26.078 111.572 20.9618 111.103 18.7305C111.053 18.4956 110.85 17.7209 109.989 17.9019C108.932 18.1239 107.699 19.65 106.61 23.026L104.888 33.1157L101.169 33.897L103.327 21.0181C103.43 20.3424 103.418 19.8954 103.344 19.5431C103.213 18.9168 102.926 18.5273 102.321 18.3684C103.565 18.0661 106.402 16.9795 107.056 16.3927L106.471 20.0306L106.706 19.9812C107.894 17.0749 109.763 15.6604 111.329 15.3314C113.051 14.9696 114.629 15.8643 114.983 17.5475C115.558 20.2877 112.997 25.6079 113.466 27.8392C113.606 28.5047 113.954 28.7994 114.58 28.6678C116.498 28.2648 117.959 24.3203 118.596 22.1019ZM128.972 19.8401C127.759 20.0951 126.536 19.3303 126.289 18.1559C126.009 16.825 126.735 15.6098 128.027 15.3384C129.279 15.0752 130.385 15.8647 130.657 17.1565C130.912 18.37 130.225 19.577 128.972 19.8401Z" fill="#FFDD00"/>
</svg>
