<svg width="379" height="252" viewBox="0 0 379 252" fill="none" xmlns="http://www.w3.org/2000/svg">
<g clip-path="url(#clip0_6373_7399)">
<path d="M36.2247 3.07227H74.2914V248.927H24.8661V66.3685H0V39.3294C19.6473 35.9495 32.5408 22.7371 36.2247 3.07227Z" fill="#FFDD00"/>
<path d="M148.232 252C115.691 252 89.9043 225.575 89.9043 200.687V51.313C89.9043 26.4247 115.691 0 148.232 0C180.773 0 206.56 26.4247 206.56 51.313V200.643C206.56 225.531 180.773 251.956 148.232 251.956V252ZM148.232 42.0951C143.013 42.0951 138.716 45.1677 138.716 49.4694V202.487C138.716 206.788 143.013 209.861 148.232 209.861C153.451 209.861 157.749 206.788 157.749 202.487V49.4694C157.749 45.1677 153.451 42.0951 148.232 42.0951Z" fill="#FFDD00"/>
<path d="M337.557 154.115H307.384V58.0296L288.527 154.115H268.748L251.776 57.854V154.115H224.629V3.11719H270.633L281.773 71.9881L293.658 3.11719H337.601V154.115H337.557Z" fill="#FFDD00"/>
<path d="M347.556 154.115V3.11719H377.728V154.115H347.556Z" fill="#FFDD00"/>
<path d="M379 166.844H223.795V194.234H379V166.844Z" fill="#FFDD00"/>
</g>
<defs>
<clipPath id="clip0_6373_7399">
<rect width="379" height="252" fill="white"/>
</clipPath>
</defs>
</svg>
