<svg width="498" height="252" viewBox="0 0 498 252" fill="none" xmlns="http://www.w3.org/2000/svg">
<g clip-path="url(#clip0_6373_7406)">
<path d="M36.3832 3.07227H74.6163V248.927H24.9749V66.3686H0V39.3294C19.7332 35.9495 32.6832 22.7371 36.3832 3.07227Z" fill="#FFDD00"/>
<path d="M145.929 251.999C113.246 251.999 88.8877 228.647 88.8877 203.759V181.328H136.062V202.53C136.062 206.831 140.379 209.904 145.929 209.904C151.171 209.904 155.487 206.831 155.487 202.53V149.066C155.487 144.764 151.171 141.691 145.929 141.691H124.346V107.278H145.929C151.171 107.278 155.487 103.898 155.487 99.9036V49.5124C155.487 45.2107 151.171 42.1381 145.929 42.1381C140.379 42.1381 136.062 45.2107 136.062 49.5124V70.7136H88.8877V48.2833C88.8877 23.395 113.246 0.0429688 145.929 0.0429688C178.612 0.0429688 202.662 23.395 202.662 48.2833V98.06C202.662 107.892 197.729 120.798 183.546 124.792C197.729 128.479 202.662 141.384 202.662 151.524V203.759C202.662 228.647 178.304 251.999 145.929 251.999Z" fill="#FFDD00"/>
<path d="M210.547 200.336H255.872V248.884H210.547V200.336Z" fill="#FFDD00"/>
<path d="M278.072 3.07227H316.305V248.927H266.663V66.3686H241.688V39.3294C261.422 35.9495 274.372 22.7371 278.072 3.07227Z" fill="#FFDD00"/>
<path d="M456.419 154.115H426.115V58.0296L407.174 154.115H387.309L370.262 57.854V154.115H342.997V3.11719H389.203L400.391 71.9881L412.328 3.11719H456.463V154.115H456.419Z" fill="#FFDD00"/>
<path d="M466.418 154.115V3.11719H496.723V154.115H466.418Z" fill="#FFDD00"/>
<path d="M498 166.844H342.116V194.234H498V166.844Z" fill="#FFDD00"/>
</g>
<defs>
<clipPath id="clip0_6373_7406">
<rect width="498" height="252" fill="white"/>
</clipPath>
</defs>
</svg>
