<svg width="258" height="252" viewBox="0 0 258 252" fill="none" xmlns="http://www.w3.org/2000/svg">
<g clip-path="url(#clip0_8332_2409)">
<path d="M51.6267 41.0594L48.2056 92.3837C56.6027 87.4068 65.9328 84.6073 76.196 84.6073C98.2772 84.6073 114.76 101.404 114.76 118.512V203.12C114.76 228.315 90.1911 251.956 57.5357 251.956C24.8803 251.956 0 228.315 0 203.12V180.413H47.8946V201.876C47.8946 206.23 51.9377 209.341 57.5357 209.341C62.8228 209.341 67.1768 206.23 67.1768 201.876V128.155C67.1768 124.111 62.8228 120.69 57.5357 120.69C51.9377 120.69 47.8946 124.111 47.8946 128.155L0 126.289L7.7751 0H116.315C116.315 24.5734 104.186 41.0594 94.5452 41.0594H51.6267Z" fill="#FFDD00"/>
<path d="M205.129 0H252.713L220.99 114.158L258 248.845H208.239L188.024 158.017L178.072 189.744V248.845H128V0H178.072V112.291L205.129 0Z" fill="#FFDD00"/>
</g>
<defs>
<clipPath id="clip0_8332_2409">
<rect width="258" height="252" fill="white"/>
</clipPath>
</defs>
</svg>
