<svg width="72" height="70" viewBox="0 0 72 70" fill="none" xmlns="http://www.w3.org/2000/svg">
<path d="M37.6935 1.26792C40.2826 -0.919694 44.2563 -0.184775 45.8688 2.77633C46.6262 4.16475 48.293 4.80325 49.7991 4.28045C53.0132 3.16414 56.4509 5.26605 56.8719 8.60426C57.0694 10.1684 58.3911 11.3597 59.9884 11.4089C63.3935 11.5139 65.8307 14.7 65.0016 17.9611C64.6132 19.4909 65.4096 21.0722 66.8811 21.6871C70.0171 23.0005 71.1239 26.838 69.1576 29.5848C68.2353 30.8725 68.4002 32.6316 69.5461 33.7286C71.9898 36.0727 71.6187 40.0451 68.7779 41.9049C67.4475 42.7769 66.957 44.476 67.6233 45.9094C69.0448 48.9669 67.2435 52.5387 63.9165 53.2608C62.3561 53.5993 61.2775 55.0092 61.3752 56.5818C61.5835 59.9393 58.5951 62.6283 55.2291 62.1141C53.6513 61.8741 52.13 62.804 51.6438 64.306C50.6086 67.5113 46.8389 68.9533 43.8874 67.2714C42.5028 66.4829 40.7449 66.8086 39.7422 68.0363C37.6046 70.6546 33.5614 70.6546 31.4237 68.0363C30.4211 66.8086 28.6632 66.485 27.2786 67.2714C24.327 68.9512 20.5573 67.5092 19.5221 64.306C19.036 62.804 17.5168 61.8741 15.9369 62.1141C12.5687 62.6283 9.58243 59.9393 9.79077 56.5818C9.88843 55.007 8.80983 53.5993 7.24942 53.2608C3.92245 52.5387 2.11898 48.9669 3.54266 45.9094C4.20892 44.476 3.72062 42.7769 2.38809 41.9049C-0.450582 40.0451 -0.823863 36.0705 1.61983 33.7286C2.76571 32.6295 2.93065 30.8725 2.0083 29.5848C0.042062 26.838 1.14671 23.0005 4.28488 21.6871C5.7563 21.0722 6.55278 19.4909 6.1643 17.9611C5.33527 14.6979 7.77028 11.5139 11.1776 11.4089C12.7749 11.3597 14.0965 10.1705 14.294 8.60426C14.715 5.26605 18.1505 3.16628 21.3668 4.28045C22.873 4.80325 24.5419 4.16475 25.2971 2.77633C26.9118 -0.186918 30.8833 -0.919694 33.4724 1.26792C34.6856 2.2921 36.4739 2.2921 37.6892 1.26792H37.6935Z" fill="#F9F9F4"/>
</svg>
