<svg width="26" height="26" viewBox="0 0 26 26" fill="none" xmlns="http://www.w3.org/2000/svg">
<g clip-path="url(#clip0_8396_1521)">
<path d="M13.6658 5.31571L9.69576 9.41124H6.40402C6.18075 9.41124 6 9.59199 6 9.81526V16.184C6 16.4072 6.18075 16.588 6.40402 16.588H9.69576L13.6658 20.6835C13.9189 20.9429 14.359 20.7643 14.359 20.4028V5.5964C14.359 5.23278 13.9189 5.05416 13.6658 5.31571Z" fill="#FFDD00"/>
<path d="M21.8669 10.9893L20.944 10.0664L18.9345 12.078L16.9229 10.0664L16 10.9893L18.0116 13.0009L16 15.0104L16.9229 15.9333L18.9345 13.9216L20.944 15.9333L21.8669 15.0104L19.8552 13.0009L21.8669 10.9893Z" fill="#FFDD00"/>
<path d="M13.0011 26C5.83283 26 0 20.1693 0 13.0011C0 5.83283 5.83283 0 13.0011 0C20.1693 0 26.0021 5.83283 26.0021 13.0011C26.0021 20.1693 20.1693 26.0021 13.0011 26.0021V26ZM13.0011 1.48851C6.65364 1.48851 1.48851 6.65364 1.48851 13.0011C1.48851 19.3485 6.65364 24.5136 13.0011 24.5136C19.3485 24.5136 24.5136 19.3485 24.5136 13.0011C24.5136 6.65364 19.3485 1.48851 13.0011 1.48851Z" fill="#FFDD00"/>
</g>
<defs>
<clipPath id="clip0_8396_1521">
<rect width="26" height="26" fill="white"/>
</clipPath>
</defs>
</svg>
