<svg width="41" height="109" viewBox="0 0 41 109" fill="none" xmlns="http://www.w3.org/2000/svg">
<g clip-path="url(#clip0_8494_1599)">
<path d="M21.3913 0.662895L25.5875 13.8813C25.7127 14.2763 26.0726 14.5442 26.4794 14.5442H40.0602C40.9687 14.5442 41.3463 15.7333 40.6109 16.2799L29.6232 24.4492C29.2946 24.6936 29.1569 25.127 29.2831 25.522L33.4794 38.7404C33.76 39.6243 32.7712 40.3597 32.0368 39.8132L21.0491 31.6439C20.7206 31.3994 20.2752 31.3994 19.9477 31.6439L8.95994 39.8132C8.22562 40.3597 7.23679 39.6243 7.51737 38.7404L11.7136 25.522C11.8388 25.127 11.7022 24.6936 11.3736 24.4492L0.387981 16.2799C-0.346341 15.7333 0.0312509 14.5442 0.938723 14.5442H14.5195C14.9253 14.5442 15.2851 14.2763 15.4113 13.8813L19.6087 0.662895C19.8892 -0.220965 21.1107 -0.220965 21.3913 0.662895Z" fill="#FFDD00"/>
</g>
<g clip-path="url(#clip1_8494_1599)">
<path d="M21.3913 69.6629L25.5875 82.8813C25.7127 83.2763 26.0726 83.5442 26.4794 83.5442H40.0602C40.9687 83.5442 41.3463 84.7333 40.6109 85.2799L29.6232 93.4492C29.2946 93.6936 29.1569 94.127 29.2831 94.522L33.4794 107.74C33.76 108.624 32.7712 109.36 32.0368 108.813L21.0491 100.644C20.7206 100.399 20.2752 100.399 19.9477 100.644L8.95994 108.813C8.22562 109.36 7.23679 108.624 7.51737 107.74L11.7136 94.522C11.8388 94.127 11.7022 93.6936 11.3736 93.4492L0.387981 85.2799C-0.346341 84.7333 0.0312509 83.5442 0.938723 83.5442H14.5195C14.9253 83.5442 15.2851 83.2763 15.4113 82.8813L19.6087 69.6629C19.8892 68.779 21.1107 68.779 21.3913 69.6629Z" fill="#FFDD00"/>
</g>
<defs>
<clipPath id="clip0_8494_1599">
<rect width="41" height="40" fill="white"/>
</clipPath>
<clipPath id="clip1_8494_1599">
<rect width="41" height="40" fill="white" transform="translate(0 69)"/>
</clipPath>
</defs>
</svg>
