<svg width="40" height="40" viewBox="0 0 40 40" fill="none" xmlns="http://www.w3.org/2000/svg">
<path d="M39.9992 19.9999C39.9992 8.95438 31.045 0 19.9996 0C8.95422 0 0 8.95438 0 19.9999C0 29.3791 6.45747 37.2495 15.1685 39.4111V26.1119H11.0446V19.9999H15.1685V17.3664C15.1685 10.5592 18.2492 7.40398 24.9323 7.40398C26.1995 7.40398 28.3858 7.65278 29.2802 7.90078V13.4408C28.8082 13.3912 27.9882 13.3664 26.9699 13.3664C23.6907 13.3664 22.4235 14.6088 22.4235 17.8384V19.9999H28.9562L27.8338 26.1119H22.4235V39.8535C32.3265 38.6575 40 30.2255 40 19.9999H39.9992Z" fill="black"/>
</svg>
