<svg width="57" height="57" viewBox="0 0 57 57" fill="none" xmlns="http://www.w3.org/2000/svg">
<path d="M30.1901 1.03245C32.2638 -0.748894 35.4465 -0.150458 36.738 2.26072C37.3447 3.39129 38.6796 3.91121 39.8859 3.48551C42.4603 2.57652 45.2136 4.28807 45.5508 7.00632C45.709 8.27996 46.7676 9.25002 48.0469 9.29014C50.7742 9.37563 52.7262 11.97 52.0622 14.6255C51.7511 15.8712 52.389 17.1588 53.5675 17.6595C56.0792 18.729 56.9657 21.8538 55.3909 24.0905C54.6522 25.1391 54.7843 26.5715 55.702 27.4647C57.6593 29.3735 57.3621 32.6081 55.0867 34.1225C54.0212 34.8326 53.6283 36.2162 54.162 37.3834C55.3005 39.8731 53.8578 42.7815 51.1931 43.3695C49.9433 43.6451 49.0794 44.7932 49.1576 46.0738C49.3245 48.8077 46.931 50.9973 44.235 50.5786C42.9713 50.3832 41.7528 51.1404 41.3634 52.3634C40.5343 54.9735 37.515 56.1477 35.151 54.7781C34.042 54.1361 32.6341 54.4013 31.831 55.401C30.1189 57.533 26.8806 57.533 25.1684 55.401C24.3654 54.4013 22.9574 54.1378 21.8484 54.7781C19.4844 56.146 16.4651 54.9718 15.636 52.3634C15.2466 51.1404 14.0299 50.3832 12.7644 50.5786C10.0667 50.9973 7.67492 48.8077 7.84179 46.0738C7.92001 44.7914 7.05611 43.6451 5.80633 43.3695C3.14163 42.7815 1.69717 39.8731 2.83744 37.3834C3.37108 36.2162 2.97998 34.8326 1.91271 34.1225C-0.360888 32.6081 -0.659862 29.3717 1.29738 27.4647C2.21516 26.5697 2.34727 25.1391 1.60852 24.0905C0.033689 21.8538 0.918445 18.729 3.43192 17.6595C4.61043 17.1588 5.24836 15.8712 4.93722 14.6255C4.27322 11.9683 6.2235 9.37563 8.95252 9.29014C10.2318 9.25002 11.2904 8.2817 11.4486 7.00632C11.7858 4.28807 14.5374 2.57826 17.1135 3.48551C18.3198 3.91121 19.6565 3.39129 20.2614 2.26072C21.5546 -0.152203 24.7356 -0.748894 26.8093 1.03245C27.781 1.86642 29.2133 1.86642 30.1867 1.03245H30.1901Z" fill="#F6F6F6"/>
<path d="M45.6001 27.2267L12.5401 27.2266" stroke="black" stroke-width="4"/>
<line x1="29.3601" y1="11.2656" x2="29.3601" y2="44.3256" stroke="black" stroke-width="4"/>
</svg>
