<svg width="40" height="40" viewBox="0 0 40 40" fill="none" xmlns="http://www.w3.org/2000/svg">
<g clip-path="url(#clip0_8322_2139)">
<path d="M11.7168 0.138428C9.58881 0.238828 8.13521 0.579628 6.86521 1.07723C5.55041 1.58963 4.43601 2.27683 3.32721 3.39003C2.21721 4.50403 1.53561 5.62043 1.02681 6.93643C0.534409 8.20963 0.200409 9.66403 0.106809 11.7932C0.0132093 13.9268 -0.0079907 14.6072 0.0024093 20.0384C0.0128093 25.4688 0.0368093 26.1504 0.138409 28.2844C0.240009 30.412 0.579609 31.8648 1.07721 33.1356C1.59041 34.4504 2.27681 35.5644 3.39041 36.6736C4.50361 37.7828 5.62081 38.464 6.93761 38.9732C8.20961 39.4652 9.66441 39.8 11.7932 39.8932C13.9264 39.9872 14.6076 40.008 20.0372 39.9976C25.4692 39.9872 26.1504 39.9632 28.2836 39.862C30.4116 39.7604 31.8636 39.4196 33.1352 38.9232C34.45 38.4088 35.5644 37.7236 36.6732 36.61C37.782 35.4968 38.4636 34.3796 38.9724 33.0628C39.4648 31.7908 39.8 30.336 39.8924 28.2084C39.9856 26.074 40.0076 25.392 39.9972 19.962C39.9868 14.5312 39.9624 13.8508 39.8612 11.718C39.76 9.58883 39.4192 8.13643 38.9224 6.86523C38.4084 5.55043 37.7228 4.43723 36.6096 3.32723C35.4964 2.21843 34.3792 1.53563 33.0624 1.02803C31.7896 0.535628 30.3356 0.200028 28.2068 0.108028C26.074 0.0128283 25.3932 -0.00797171 19.9616 0.00242829C14.5312 0.0128283 13.8504 0.0360283 11.7172 0.138428M11.9504 36.2936C10.0004 36.2088 8.94161 35.8848 8.23601 35.6132C7.30161 35.2516 6.63481 34.818 5.93281 34.1216C5.23241 33.4224 4.79761 32.7576 4.43281 31.8252C4.15881 31.1196 3.82881 30.062 3.73761 28.112C3.63841 26.004 3.61561 25.3716 3.60601 20.0312C3.59561 14.6924 3.61521 14.0596 3.70721 11.95C3.79081 10.0016 4.11681 8.94123 4.38761 8.23643C4.74921 7.30083 5.18121 6.63523 5.87921 5.93323C6.57841 5.23163 7.24321 4.79803 8.17641 4.43323C8.88161 4.15763 9.93881 3.83043 11.888 3.73803C13.9972 3.63803 14.6292 3.61683 19.968 3.60643C25.308 3.59603 25.9408 3.61483 28.0504 3.70763C29.9988 3.79243 31.0592 4.11523 31.7636 4.38803C32.6988 4.74963 33.3656 5.18043 34.0668 5.87963C34.768 6.57883 35.2028 7.24243 35.5676 8.17763C35.8428 8.88083 36.1704 9.93963 36.2624 11.888C36.3628 13.9972 36.3856 14.6296 36.3952 19.9688C36.4056 25.3092 36.386 25.9416 36.2936 28.05C36.2088 30 35.8852 31.0592 35.6132 31.7656C35.2516 32.6992 34.8192 33.366 34.1208 34.068C33.4224 34.7672 32.7576 35.2032 31.8236 35.568C31.12 35.8428 30.0612 36.1708 28.1132 36.2632C26.004 36.3624 25.372 36.3852 20.0312 36.3948C14.6924 36.4052 14.0604 36.3852 11.9508 36.2936M28.2544 9.30923C28.2568 10.6336 29.334 11.706 30.6584 11.7036C31.9836 11.7012 33.056 10.6248 33.054 9.30003C33.0512 7.97563 31.9744 6.90243 30.6492 6.90483C29.324 6.90723 28.2516 7.98443 28.254 9.30883M9.73081 20.0196C9.74161 25.6916 14.3484 30.2796 20.0192 30.2684C25.6904 30.2572 30.2808 25.652 30.27 19.98C30.2588 14.31 25.6516 9.71963 19.9796 9.73043C14.3088 9.74163 9.71961 14.3488 9.73081 20.0196ZM13.3332 20.0124C13.3268 16.3312 16.3064 13.3404 19.9868 13.334C23.668 13.3268 26.6592 16.3052 26.6664 19.9872C26.6736 23.6692 23.694 26.6592 20.012 26.6664C16.3312 26.6736 13.34 23.6948 13.3332 20.0128" fill="black"/>
</g>
<defs>
<clipPath id="clip0_8322_2139">
<rect width="40" height="40" fill="white"/>
</clipPath>
</defs>
</svg>
