<svg width="31" height="30" viewBox="0 0 31 30" fill="none" xmlns="http://www.w3.org/2000/svg">
<g clip-path="url(#clip0_4353_2457)">
<path d="M16.174 0.497171L19.3468 10.411C19.4415 10.7072 19.7135 10.9081 20.0211 10.9081H30.2895C30.9764 10.9081 31.2619 11.8 30.7059 12.2099L22.3982 18.3369C22.1497 18.5202 22.0456 18.8453 22.141 19.1415L25.3138 29.0553C25.526 29.7182 24.7783 30.2698 24.2231 29.8599L15.9153 23.7329C15.6669 23.5496 15.3301 23.5496 15.0825 23.7329L6.77473 29.8599C6.21951 30.2698 5.47185 29.7182 5.684 29.0553L8.8568 19.1415C8.95144 18.8453 8.84812 18.5202 8.59969 18.3369L0.293489 12.2099C-0.26173 11.8 0.023766 10.9081 0.709903 10.9081H10.9783C11.2851 10.9081 11.5572 10.7072 11.6526 10.411L14.8262 0.497171C15.0383 -0.165724 15.9619 -0.165724 16.174 0.497171Z" fill="black"/>
</g>
<defs>
<clipPath id="clip0_4353_2457">
<rect width="31" height="30" fill="white"/>
</clipPath>
</defs>
</svg>
