<svg width="12" height="11" viewBox="0 0 12 11" fill="none" xmlns="http://www.w3.org/2000/svg">
<path d="M6.25132 0.176329L7.47005 3.85303C7.50563 3.95899 7.60776 4.03074 7.72252 4.02963L11.7345 4.00756C11.9915 4.00646 12.0983 4.32324 11.8894 4.46673L8.63141 6.71735C8.5373 6.78247 8.49829 6.89726 8.53501 7.00323L9.7962 10.6656C9.87653 10.9007 9.59652 11.0961 9.38996 10.9492L6.15837 8.66442C6.06541 8.59819 5.93918 8.59819 5.84622 8.66442L2.61463 10.9492C2.40807 11.0961 2.12691 10.8996 2.20839 10.6656L3.46958 7.00323C3.5063 6.89837 3.46729 6.78247 3.37318 6.71735L0.110607 4.46673C-0.0982534 4.32214 0.00847182 4.00535 0.26553 4.00756L4.27748 4.02963C4.39338 4.02963 4.49552 3.95899 4.52995 3.85303L5.74868 0.176329C5.82671 -0.0587764 6.17329 -0.0587764 6.25132 0.176329Z" fill="#FFDD00"/>
</svg>
