<svg width="127" height="51" viewBox="0 0 127 51" fill="none" xmlns="http://www.w3.org/2000/svg">
<path d="M39.1941 37.4703C37.0019 37.9309 35.2391 37.789 33.9056 37.0446C32.572 36.3002 31.7583 35.2286 31.4644 33.8298C31.1925 32.5354 31.4215 31.3428 32.1515 30.2521C32.8771 29.1405 33.9498 28.4356 35.3695 28.1373C36.0584 27.9925 36.6797 27.9928 37.2334 28.1381C36.4103 28.6816 35.8018 29.3653 35.4082 30.1892C35.0354 31.0087 34.9279 31.7942 35.0858 32.5458C35.2437 33.2974 35.6698 33.8727 36.364 34.2719C37.0538 34.6501 37.9625 34.7208 39.0898 34.484C40.4051 34.2076 41.4519 33.6389 42.2302 32.7778C43.0293 31.9124 43.328 30.9995 43.1262 30.0391C43.0341 29.6007 42.8145 29.1781 42.4675 28.7714C42.1413 28.3604 41.8223 28.035 41.5104 27.7954C41.1984 27.5557 40.7267 27.2298 40.0951 26.8175C39.3031 26.2645 38.6984 25.8248 38.2811 25.4983C37.8637 25.1718 37.3986 24.67 36.8858 23.993C36.3729 23.316 36.0354 22.5912 35.8731 21.8187C35.5003 20.0441 35.8987 18.4127 37.0683 16.9244C38.2589 15.4318 39.9085 14.4639 42.0171 14.0209C43.5203 13.7051 44.7678 13.7809 45.7598 14.2482C46.7682 14.6903 47.3777 15.4125 47.5883 16.4146C47.7944 17.3958 47.5628 18.3165 46.8933 19.1765C46.2403 20.0112 45.3814 20.5405 44.3167 20.7642C44.0035 20.83 43.6838 20.8644 43.3574 20.8676C44.5699 19.4793 45.038 18.1275 44.7616 16.8122C44.5072 15.6014 43.7433 15.1297 42.4697 15.3972C41.3632 15.6297 40.4488 16.2578 39.7265 17.2815C38.9999 18.2843 38.7659 19.4017 39.0247 20.6334C39.1782 21.3641 39.4812 21.9763 39.9337 22.4698C40.407 22.9589 41.0331 23.4486 41.8119 23.939C41.913 24.005 42.1656 24.1699 42.5698 24.4337C42.9905 24.6723 43.2662 24.8433 43.3969 24.9466C43.5485 25.0456 43.7929 25.2231 44.1301 25.4793C44.4673 25.7354 44.7122 25.9673 44.8649 26.1751C45.034 26.3575 45.2267 26.6004 45.4431 26.9038C45.6759 27.1818 45.8609 27.4917 45.9981 27.8335C46.1309 28.1544 46.2368 28.5027 46.3157 28.8785C46.7193 30.7993 46.2658 32.5839 44.9555 34.2326C43.6616 35.856 41.7411 36.9352 39.1941 37.4703ZM56.5684 26.6918L57.6263 27.0581C57.1048 28.9334 56.3487 30.5746 55.3582 31.9816C54.3841 33.3634 53.2082 34.1991 51.8302 34.4886C50.9325 34.6772 50.1722 34.5862 49.5494 34.2157C48.9222 33.8243 48.5165 33.1901 48.3323 32.3133C48.2007 31.687 48.2081 30.9442 48.3546 30.0851L49.5359 23.101L47.8135 23.4629L48.0019 22.1807L49.7556 21.8123L50.4314 17.7138C50.5151 17.282 50.5196 16.8887 50.4451 16.5338C50.3398 16.0327 50.0773 15.7173 49.6577 15.5874C52.3137 14.637 53.7516 14.0625 53.9714 13.8637L52.7307 21.1872L55.1107 20.6872L54.9223 21.9693L52.5109 22.476L51.1397 30.579C51.0714 30.8767 51.0658 31.1613 51.1228 31.4327C51.2544 32.059 51.6438 32.3042 52.291 32.1683C54.2326 31.7603 55.6584 29.9348 56.5684 26.6918ZM66.7315 24.295L67.735 24.869C67.2265 26.8069 66.3331 28.5205 65.0547 30.0099C63.7971 31.4948 62.3437 32.4105 60.6944 32.7571C59.3791 33.0334 58.2667 32.8747 57.3572 32.281C56.4642 31.6621 55.8883 30.7367 55.6295 29.5049C55.2172 27.5425 55.5774 25.4177 56.71 23.1306C57.8591 20.8183 59.4149 19.4559 61.3774 19.0436C63.0894 18.684 64.112 19.2975 64.4454 20.8842C64.7349 22.2621 64.3921 23.5876 63.417 24.8606C62.4584 26.1083 61.2797 26.8791 59.8809 27.173C59.3798 27.2783 58.926 27.2973 58.5195 27.2301C58.5336 27.8158 58.5801 28.2965 58.659 28.6723C58.9748 30.1754 59.8426 30.7779 61.2623 30.4796C62.6402 30.1902 63.831 29.3732 64.8347 28.0288C65.8384 26.6844 66.4706 25.4398 66.7315 24.295ZM61.2598 20.5071C60.717 20.6211 60.1772 21.2686 59.6406 22.4495C59.0995 23.6095 58.7518 24.8597 58.5974 26.2001C59.8996 25.8611 60.8552 25.1699 61.4643 24.1264C62.069 23.062 62.2837 22.1122 62.1082 21.2771C61.981 20.6716 61.6982 20.415 61.2598 20.5071ZM73.468 16.5035C74.3031 16.328 74.9826 16.5014 75.5064 17.0235C76.0259 17.5247 76.38 18.2242 76.5686 19.1219C76.8317 20.3746 76.7789 21.8353 76.4102 23.5041C76.037 25.1521 75.3821 26.6521 74.4455 28.0042C73.5088 29.3564 72.4559 30.1552 71.2867 30.4009C69.9088 30.6904 69.0554 30.0522 68.7264 28.4864L68.7067 28.3924L67.793 33.8489C67.5188 35.3452 67.4821 36.5192 67.6828 37.3708L64.1472 38.4406L67.1095 20.9457C67.1844 20.4722 67.1933 20.0998 67.1363 19.8283C67.0354 19.3482 66.7416 19.0393 66.255 18.9018C66.7934 18.7668 67.5357 18.5128 68.4818 18.1396C69.4236 17.7456 70.0126 17.4365 70.249 17.2125L69.7053 20.6947L69.8932 20.6552C70.6897 18.2207 71.8813 16.8368 73.468 16.5035ZM70.4767 28.413C71.1239 28.277 71.718 27.629 72.2591 26.469C72.821 25.3045 73.2083 24.0351 73.4209 22.6607C73.6544 21.2819 73.6856 20.1854 73.5146 19.3712C73.361 18.6405 73.0338 18.3277 72.5327 18.433C71.3009 18.6918 70.2452 20.93 69.3656 25.1476C69.2652 26.0189 69.2809 26.7677 69.4125 27.394C69.5791 28.1873 69.9339 28.527 70.4767 28.413ZM89.8447 4.82279C90.9304 4.5947 92.0018 4.19521 93.059 3.62431L89.2623 26.33L86.2559 26.9617L88.8679 11.535C87.5302 12.9496 86.3075 13.9259 85.1997 14.4638L84.8195 13.4319C86.2393 12.7195 87.4605 11.3729 88.4832 9.39236C89.5267 7.4074 89.9805 5.88421 89.8447 4.82279Z" fill="#FFDD00"/>
<path d="M117.275 5.71927L118.832 10.6453L124.067 9.81743C124.729 9.7127 125.117 10.5363 124.62 10.98L120.19 14.9412L121.857 20.2107C122.045 20.7996 121.403 21.305 120.872 20.9894L116.404 18.328L112.102 22.1745C111.594 22.6286 110.81 22.1212 111.016 21.47L112.705 16.1251L108.313 13.5076C107.772 13.185 107.931 12.3652 108.551 12.2671L114.205 11.3729L115.995 5.71982C116.193 5.09572 117.078 5.09329 117.275 5.71927Z" fill="#FFDD00"/>
<path d="M10.2755 29.7193L11.8321 34.6453L17.0668 33.8174C17.729 33.7127 18.117 34.5363 17.6201 34.98L13.1903 38.9412L14.8571 44.2107C15.0448 44.7996 14.403 45.305 13.872 44.9894L9.40431 42.328L5.10245 46.1745C4.59432 46.6286 3.80955 46.1212 4.01586 45.47L5.70509 40.1251L1.31311 37.5076C0.772356 37.185 0.93053 36.3652 1.55081 36.2671L7.20455 35.3729L8.99539 29.7198C9.1931 29.0957 10.0777 29.0933 10.2755 29.7193Z" fill="#FFDD00"/>
</svg>
