<svg width="135" height="53" viewBox="0 0 135 53" fill="none" xmlns="http://www.w3.org/2000/svg">
<path d="M40.5098 39.3639C38.3176 39.8245 36.5548 39.6826 35.2212 38.9382C33.8877 38.1938 33.074 37.1222 32.7801 35.7234C32.5082 34.429 32.7372 33.2364 33.4672 32.1457C34.1928 31.0341 35.2655 30.3292 36.6851 30.0309C37.3741 29.8861 37.9954 29.8864 38.5491 30.0317C37.726 30.5752 37.1175 31.2589 36.7238 32.0828C36.351 32.9023 36.2436 33.6878 36.4015 34.4394C36.5594 35.191 36.9855 35.7664 37.6797 36.1655C38.3695 36.5437 39.2781 36.6144 40.4055 36.3776C41.7208 36.1012 42.7676 35.5325 43.5458 34.6714C44.345 33.806 44.6436 32.8931 44.4419 31.9327C44.3498 31.4943 44.1302 31.0717 43.7832 30.6651C43.457 30.254 43.138 29.9286 42.826 29.689C42.5141 29.4493 42.0423 29.1234 41.4107 28.7111C40.6188 28.1581 40.0141 27.7184 39.5967 27.3919C39.1794 27.0654 38.7143 26.5636 38.2014 25.8866C37.6886 25.2096 37.3511 24.4848 37.1888 23.7123C36.8159 21.9378 37.2144 20.3063 38.384 18.818C39.5746 17.3254 41.2241 16.3575 43.3328 15.9145C44.836 15.5987 46.0835 15.6745 47.0755 16.1419C48.0839 16.584 48.6934 17.3061 48.9039 18.3082C49.1101 19.2894 48.8784 20.2101 48.209 21.0701C47.556 21.9049 46.6971 22.4341 45.6323 22.6578C45.3192 22.7236 44.9994 22.758 44.6731 22.7612C45.8856 21.3729 46.3537 20.0211 46.0773 18.7059C45.8229 17.495 45.0589 17.0233 43.7854 17.2908C42.6789 17.5233 41.7645 18.1514 41.0422 19.1751C40.3156 20.178 40.0816 21.2953 40.3404 22.527C40.4939 23.2577 40.7969 23.8699 41.2494 24.3634C41.7227 24.8525 42.3488 25.3422 43.1276 25.8326C43.2286 25.8986 43.4813 26.0635 43.8855 26.3273C44.3062 26.5659 44.5819 26.7369 44.7126 26.8402C44.8642 26.9392 45.1086 27.1167 45.4458 27.3729C45.783 27.629 46.0279 27.8609 46.1806 28.0687C46.3497 28.2511 46.5424 28.494 46.7587 28.7974C46.9916 29.0754 47.1766 29.3853 47.3138 29.7271C47.4466 30.048 47.5525 30.3963 47.6314 30.7721C48.0349 32.6929 47.5815 34.4775 46.2712 36.1262C44.9773 37.7496 43.0568 38.8288 40.5098 39.3639ZM57.8841 28.5854L58.942 28.9517C58.4204 30.827 57.6644 32.4682 56.6739 33.8752C55.6998 35.257 54.5238 36.0927 53.1459 36.3822C52.2482 36.5708 51.4879 36.4798 50.8651 36.1093C50.2379 35.7179 49.8322 35.0838 49.6479 34.2069C49.5164 33.5806 49.5238 32.8378 49.6703 31.9787L50.8516 24.9946L49.1292 25.3565L49.3176 24.0743L51.0713 23.7059L51.7471 19.6074C51.8307 19.1756 51.8353 18.7823 51.7607 18.4274C51.6555 17.9263 51.393 17.6109 50.9733 17.481C53.6293 16.5306 55.0673 15.9561 55.2871 15.7573L54.0463 23.0809L56.4264 22.5808L56.238 23.863L53.8266 24.3696L52.4554 32.4726C52.3871 32.7704 52.3815 33.0549 52.4385 33.3263C52.5701 33.9527 52.9595 34.1978 53.6067 34.0619C55.5483 33.6539 56.9741 31.8285 57.8841 28.5854ZM68.0472 26.1886L69.0506 26.7626C68.5422 28.7005 67.6488 30.4141 66.3704 31.9035C65.1128 33.3884 63.6594 34.3042 62.0101 34.6507C60.6948 34.927 59.5824 34.7683 58.6729 34.1746C57.7799 33.5557 57.204 32.6303 56.9452 31.3985C56.5329 29.4361 56.893 27.3113 58.0257 25.0242C59.1748 22.7119 60.7306 21.3496 62.6931 20.9372C64.4051 20.5776 65.4277 21.1911 65.7611 22.7778C66.0506 24.1557 65.7078 25.4812 64.7327 26.7542C63.7741 28.0019 62.5954 28.7727 61.1966 29.0666C60.6955 29.1719 60.2417 29.1909 59.8352 29.1237C59.8493 29.7094 59.8958 30.1901 59.9747 30.5659C60.2905 32.0691 61.1583 32.6715 62.5779 32.3733C63.9559 32.0838 65.1467 31.2668 66.1503 29.9224C67.154 28.578 67.7863 27.3334 68.0472 26.1886ZM62.5755 22.4007C62.0327 22.5147 61.4929 23.1622 60.9563 24.3431C60.4152 25.5031 60.0675 26.7533 59.9131 28.0937C61.2152 27.7548 62.1709 27.0635 62.78 26.02C63.3847 24.9556 63.5994 24.0058 63.4239 23.1707C63.2967 22.5653 63.0139 22.3086 62.5755 22.4007ZM74.7836 18.3971C75.6187 18.2216 76.2982 18.395 76.8221 18.9171C77.3416 19.4183 77.6956 20.1178 77.8843 21.0155C78.1474 22.2682 78.0946 23.7289 77.7259 25.3977C77.3527 27.0457 76.6978 28.5457 75.7611 29.8978C74.8245 31.25 73.7716 32.0489 72.6024 32.2945C71.2245 32.584 70.3711 31.9458 70.0421 30.38L70.0223 30.2861L69.1087 35.7425C68.8345 37.2388 68.7977 38.4128 68.9985 39.2644L65.4629 40.3342L68.4251 22.8393C68.5001 22.3658 68.509 21.9934 68.452 21.722C68.3511 21.2418 68.0573 20.9329 67.5706 20.7954C68.1091 20.6604 68.8514 20.4064 69.7975 20.0332C70.7393 19.6392 71.3283 19.3301 71.5646 19.1061L71.021 22.5883L71.2089 22.5488C72.0054 20.1143 73.1969 18.7305 74.7836 18.3971ZM71.7924 30.3066C72.4396 30.1706 73.0337 29.5226 73.5748 28.3626C74.1367 27.1981 74.524 25.9287 74.7366 24.5543C74.9701 23.1755 75.0013 22.079 74.8302 21.2648C74.6767 20.5341 74.3494 20.2213 73.8484 20.3266C72.6166 20.5854 71.5609 22.8236 70.6813 27.0412C70.5809 27.9125 70.5966 28.6613 70.7281 29.2876C70.8948 30.081 71.2496 30.4206 71.7924 30.3066ZM98.6811 5.62683C99.8839 6.26788 100.624 7.24605 100.9 8.56134C101.176 9.87662 100.904 11.1219 100.082 12.2972C99.2777 13.4472 98.1594 14.4016 96.7274 15.1602C98.8698 15.6039 100.156 16.8487 100.586 18.8947C100.994 20.8363 100.462 22.7138 98.9897 24.5272C97.5342 26.3153 95.5539 27.4725 93.0485 27.9989C91.2322 28.3805 89.6852 28.2804 88.4077 27.6987C87.1301 27.1169 86.34 26.1058 86.0373 24.6652C85.7654 23.3708 85.9532 22.2414 86.6007 21.277C87.2648 20.2873 88.1396 19.6784 89.2252 19.4503C90.0186 19.2837 90.7432 19.3603 91.399 19.6803C90.5188 19.9524 89.8604 20.4504 89.4239 21.1743C89.0083 21.8938 88.8773 22.6189 89.0308 23.3496C89.1712 24.0177 89.5297 24.531 90.1064 24.8894C90.6995 25.2225 91.4972 25.2838 92.4993 25.0733C93.9607 24.7663 95.2086 24.0136 96.243 22.8153C97.2774 21.6171 97.6367 20.2663 97.3209 18.7631C97.1191 17.8028 96.6947 17.1835 96.0477 16.9052C95.4216 16.6226 94.597 16.5887 93.574 16.8037C93.0729 16.9089 92.6306 17.0346 92.2471 17.1805L92.4603 15.8605C94.2789 15.2822 95.7428 14.3643 96.8519 13.1067C97.9567 11.8283 98.3665 10.5105 98.0814 9.15348C97.9015 8.2975 97.4766 7.62381 96.8066 7.1324C96.1322 6.62012 95.2313 6.4824 94.1039 6.71926C92.9556 6.9605 92.0611 7.47543 91.4202 8.26405C90.8002 9.04828 90.5801 9.86839 90.7599 10.7244C90.9398 11.5803 91.4159 11.9272 92.1884 11.7649C92.6059 11.6772 92.9406 11.4543 93.1923 11.0962C93.4397 10.7172 93.5355 10.2393 93.4797 9.66248C93.9862 9.68686 94.3228 10.0957 94.4895 10.8891C94.6386 11.5989 94.4757 12.2762 94.0008 12.921C93.5424 13.5404 92.8434 13.9489 91.9039 14.1463C90.9227 14.3524 90.091 14.2329 89.4089 13.7876C88.7224 13.3215 88.2826 12.6291 88.0896 11.7105C87.7782 10.2282 88.2358 8.87857 89.4625 7.66169C90.6892 6.44481 92.2629 5.63461 94.1836 5.23107C96 4.84947 97.4991 4.98139 98.6811 5.62683Z" fill="#FFDD00"/>
<path d="M125.275 2.82962L126.832 7.75568L132.067 6.92778C132.729 6.82305 133.117 7.64664 132.62 8.09038L128.19 12.0516L129.857 17.3211C130.045 17.91 129.403 18.4153 128.872 18.0998L124.404 15.4384L120.102 19.2848C119.594 19.739 118.81 19.2316 119.016 18.5803L120.705 13.2354L116.313 10.6179C115.772 10.2953 115.931 9.47557 116.551 9.37747L122.205 8.48328L123.995 2.83017C124.193 2.20607 125.078 2.20364 125.275 2.82962Z" fill="#FFDD00"/>
<path d="M10.2755 27.8296L11.8321 32.7557L17.0668 31.9278C17.729 31.8231 18.117 32.6466 17.6201 33.0904L13.1903 37.0516L14.8571 42.3211C15.0448 42.91 14.403 43.4153 13.872 43.0998L9.40431 40.4384L5.10245 44.2848C4.59432 44.739 3.80955 44.2316 4.01586 43.5803L5.70509 38.2354L1.31311 35.6179C0.772356 35.2953 0.93053 34.4756 1.55081 34.3775L7.20455 33.4833L8.99539 27.8302C9.1931 27.2061 10.0777 27.2036 10.2755 27.8296Z" fill="#FFDD00"/>
</svg>
