<svg width="135" height="52" viewBox="0 0 135 52" fill="none" xmlns="http://www.w3.org/2000/svg">
<path d="M39.7516 39.0955C37.5595 39.556 35.7966 39.4141 34.4631 38.6697C33.1296 37.9253 32.3159 36.8537 32.022 35.455C31.75 34.1605 31.9791 32.968 32.7091 31.8772C33.4347 30.7656 34.5073 30.0607 35.927 29.7624C36.616 29.6177 37.2373 29.618 37.791 29.7632C36.9678 30.3067 36.3594 30.9904 35.9657 31.8143C35.5929 32.6338 35.4854 33.4194 35.6433 34.1709C35.8013 34.9225 36.2273 35.4979 36.9215 35.897C37.6114 36.2753 38.52 36.346 39.6474 36.1091C40.9627 35.8328 42.0094 35.2641 42.7877 34.403C43.5868 33.5375 43.8855 32.6246 43.6837 31.6642C43.5916 31.2258 43.3721 30.8033 43.025 30.3966C42.6989 29.9855 42.3798 29.6602 42.0679 29.4205C41.756 29.1809 41.2842 28.8549 40.6526 28.4426C39.8607 27.8896 39.256 27.4499 38.8386 27.1234C38.4212 26.7969 37.9561 26.2952 37.4433 25.6181C36.9305 24.9411 36.5929 24.2164 36.4306 23.4439C36.0578 21.6693 36.4562 20.0379 37.6259 18.5496C38.8164 17.0569 40.466 16.0891 42.5746 15.6461C44.0778 15.3303 45.3254 15.406 46.3173 15.8734C47.3258 16.3155 47.9353 17.0376 48.1458 18.0397C48.352 19.021 48.1203 19.9416 47.4508 20.8016C46.7978 21.6364 45.939 22.1656 44.8742 22.3893C44.561 22.4551 44.2413 22.4896 43.915 22.4928C45.1274 21.1045 45.5955 19.7527 45.3192 18.4374C45.0648 17.2265 44.3008 16.7548 43.0273 17.0224C41.9208 17.2549 41.0064 17.883 40.2841 18.9067C39.5574 19.9095 39.3235 21.0268 39.5823 22.2586C39.7358 22.9893 40.0388 23.6014 40.4912 24.0949C40.9646 24.584 41.5907 25.0738 42.3694 25.5641C42.4705 25.6301 42.7231 25.795 43.1274 26.0589C43.5481 26.2975 43.8238 26.4684 43.9545 26.5718C44.1061 26.6707 44.3505 26.8483 44.6877 27.1044C45.0249 27.3606 45.2698 27.5925 45.4224 27.8002C45.5915 27.9827 45.7843 28.2256 46.0006 28.5289C46.2334 28.807 46.4184 29.1169 46.5556 29.4587C46.6884 29.7795 46.7943 30.1279 46.8733 30.5037C47.2768 32.4244 46.8234 34.2091 45.513 35.8577C44.2192 37.4811 42.2987 38.5604 39.7516 39.0955ZM57.126 28.3169L58.1839 28.6833C57.6623 30.5586 56.9063 32.1997 55.9157 33.6068C54.9417 34.9886 53.7657 35.8242 52.3878 36.1137C51.49 36.3023 50.7298 36.2114 50.1069 35.8408C49.4797 35.4494 49.074 34.8153 48.8898 33.9384C48.7582 33.3121 48.7657 32.5694 48.9122 31.7102L50.0934 24.7262L48.371 25.088L48.5594 23.8059L50.3132 23.4374L50.9889 19.3389C51.0726 18.9072 51.0772 18.5138 51.0026 18.1589C50.8973 17.6579 50.6349 17.3424 50.2152 17.2126C52.8712 16.2622 54.3091 15.6876 54.529 15.4888L53.2882 22.8124L55.6682 22.3124L55.4798 23.5945L53.0685 24.1011L51.6972 32.2042C51.629 32.5019 51.6234 32.7865 51.6804 33.0579C51.812 33.6842 52.2014 33.9294 52.8486 33.7934C54.7902 33.3855 56.216 31.56 57.126 28.3169ZM67.2891 25.9202L68.2925 26.4941C67.7841 28.432 66.8907 30.1457 65.6122 31.635C64.3547 33.12 62.9012 34.0357 61.2519 34.3822C59.9366 34.6585 58.8242 34.4999 57.9147 33.9062C57.0217 33.2872 56.4458 32.3619 56.187 31.1301C55.7747 29.1676 56.1349 27.0428 57.2675 24.7558C58.4167 22.4434 59.9725 21.0811 61.935 20.6688C63.6469 20.3091 64.6696 20.9226 65.0029 22.5093C65.2924 23.8872 64.9496 25.2127 63.9745 26.4857C63.0159 27.7335 61.8372 28.5043 60.4384 28.7982C59.9374 28.9034 59.4836 28.9225 59.0771 28.8553C59.0911 29.4409 59.1376 29.9216 59.2166 30.2974C59.5324 31.8006 60.4001 32.4031 61.8198 32.1048C63.1977 31.8153 64.3885 30.9983 65.3922 29.6539C66.3959 28.3095 67.0282 27.0649 67.2891 25.9202ZM61.8173 22.1322C61.2745 22.2463 60.7348 22.8938 60.1981 24.0747C59.6571 25.2347 59.3093 26.4849 59.155 27.8253C60.4571 27.4863 61.4127 26.7951 62.0218 25.7515C62.6266 24.6871 62.8412 23.7373 62.6658 22.9022C62.5386 22.2968 62.2558 22.0401 61.8173 22.1322ZM74.0255 18.1286C74.8606 17.9532 75.5401 18.1265 76.064 18.6486C76.5835 19.1499 76.9375 19.8494 77.1261 20.7471C77.3893 21.9997 77.3365 23.4605 76.9677 25.1293C76.5946 26.7772 75.9397 28.2772 75.003 29.6294C74.0663 30.9815 73.0134 31.7804 71.8443 32.026C70.4664 32.3155 69.6129 31.6774 69.2839 30.1115L69.2642 30.0176L68.3506 35.474C68.0764 36.9704 68.0396 38.1443 68.2403 38.9959L64.7047 40.0657L67.667 22.5709C67.7419 22.0974 67.7509 21.7249 67.6938 21.4535C67.593 20.9733 67.2992 20.6645 66.8125 20.5269C67.3509 20.392 68.0932 20.1379 69.0394 19.7648C69.9811 19.3707 70.5702 19.0617 70.8065 18.8376L70.2628 22.3198L70.4507 22.2803C71.2472 19.8459 72.4388 18.462 74.0255 18.1286ZM71.0342 30.0381C71.6814 29.9021 72.2756 29.2541 72.8166 28.0941C73.3786 26.9297 73.7658 25.6603 73.9785 24.2859C74.212 22.9071 74.2432 21.8106 74.0721 20.9963C73.9186 20.2656 73.5913 19.9529 73.0902 20.0582C71.8585 20.317 70.8028 22.5552 69.9231 26.7728C69.8228 27.644 69.8384 28.3928 69.97 29.0192C70.1367 29.8125 70.4914 30.1521 71.0342 30.0381ZM95.3281 27.0922C94.3051 27.3072 93.0729 27.3045 91.6314 27.0841C90.19 26.8638 89.1352 26.8238 88.4672 26.9641C87.4024 27.1878 86.4754 27.8077 85.6861 28.8237L84.8226 28.4492C85.0253 27.3385 85.6575 26.0939 86.7195 24.7154C87.7814 23.337 88.9631 22.0097 90.2645 20.7335C91.5615 19.4364 92.8333 18.1229 94.0798 16.7928C95.3428 15.4375 96.3273 14.0536 97.0333 12.6409C97.7557 11.203 97.9875 9.86811 97.7288 8.63634C97.5314 7.69685 97.1043 7.01271 96.4474 6.58394C95.7862 6.13429 94.9336 6.01912 93.8897 6.23843C92.4492 6.54108 91.3518 7.28391 90.5976 8.46692C89.839 9.62906 89.5715 10.7425 89.7952 11.8073C89.8961 12.2874 90.0899 12.6391 90.3765 12.8623C90.6588 13.0646 90.9879 13.1262 91.3637 13.0473C91.8021 12.9552 92.1659 12.7152 92.455 12.3275C92.765 11.9354 92.8817 11.4531 92.805 10.8806C93.3203 10.9468 93.6591 11.3661 93.8213 12.1385C93.9792 12.8901 93.84 13.6279 93.4035 14.3517C92.9835 15.0504 92.2515 15.5093 91.2076 15.7286C90.122 15.9567 89.1959 15.8025 88.4292 15.266C87.6625 14.7295 87.1717 13.9498 86.9567 12.9268C86.6015 11.2357 87.096 9.59496 88.4404 8.00457C89.7804 6.3933 91.5569 5.35519 93.77 4.89025C95.5654 4.51303 97.0794 4.66363 98.3119 5.34206C99.5609 5.99522 100.35 7.1047 100.679 8.67052C100.964 10.0276 100.806 11.4014 100.204 12.7922C99.6234 14.1785 98.778 15.4461 97.6678 16.5949C96.5741 17.7184 95.4442 18.7733 94.278 19.7595C93.1075 20.7248 92.0056 21.6538 90.9724 22.5467C89.9349 23.4186 89.2743 24.1133 88.9906 24.6307L89.0416 24.718C89.8241 24.2921 90.4972 24.0199 91.0609 23.9014C91.7916 23.7479 92.6239 23.7147 93.5578 23.8019C94.5081 23.8638 95.213 23.8466 95.6723 23.7501C96.4239 23.5922 96.9904 23.3314 97.3718 22.9679C97.7697 22.5791 97.9226 22.1655 97.8305 21.7271C97.7778 21.4766 97.6565 21.2623 97.4665 21.0842C97.8423 21.0053 98.1927 21.1169 98.5178 21.4192C98.8429 21.7215 99.0603 22.1336 99.17 22.6555C99.3586 23.5533 99.1412 24.4382 98.5179 25.3103C97.8945 26.1825 96.8313 26.7764 95.3281 27.0922Z" fill="#FFDD00"/>
<path d="M125.275 2.40189L126.832 7.32795L132.067 6.50005C132.729 6.39532 133.117 7.2189 132.62 7.66264L128.19 11.6238L129.857 16.8933C130.045 17.4823 129.403 17.9876 128.872 17.672L124.404 15.0107L120.102 18.8571C119.594 19.3112 118.81 18.8038 119.016 18.1526L120.705 12.8077L116.313 10.1902C115.772 9.8676 115.931 9.04784 116.551 8.94974L122.205 8.05555L123.995 2.40244C124.193 1.77834 125.078 1.7759 125.275 2.40189Z" fill="#FFDD00"/>
<path d="M10.2755 27.4019L11.8321 32.328L17.0668 31.5C17.729 31.3953 18.117 32.2189 17.6201 32.6626L13.1903 36.6238L14.8571 41.8933C15.0448 42.4823 14.403 42.9876 13.872 42.672L9.40431 40.0107L5.10245 43.8571C4.59432 44.3112 3.80955 43.8038 4.01586 43.1526L5.70509 37.8077L1.31311 35.1902C0.772356 34.8676 0.93053 34.0478 1.55081 33.9497L7.20455 33.0555L8.99539 27.4024C9.1931 26.7783 10.0777 26.7759 10.2755 27.4019Z" fill="#FFDD00"/>
</svg>
